<?xml version="1.0" encoding="utf-8"?>
<!-- Generator: Adobe Illustrator 27.5.0, SVG Export Plug-In . SVG Version: 6.00 Build 0)  -->
<svg version="1.1" xmlns="http://www.w3.org/2000/svg" xmlns:xlink="http://www.w3.org/1999/xlink" x="0px" y="0px"
	 viewBox="0 0 270 125" style="enable-background:new 0 0 270 125;" xml:space="preserve">
<g id="Base">
	<rect id="XMLID_3_" style="fill:#E6E6E6;" width="270" height="125"/>
</g>
<g id="Background">
	<defs>
		<rect id="XMLID_4_" width="270" height="125"/>
	</defs>
	<clipPath id="XMLID_00000082367762562543076410000009004718785178270142_">
		<use xlink:href="#XMLID_4_"  style="overflow:visible;"/>
	</clipPath>
	<g id="XMLID_279_" style="clip-path:url(#XMLID_00000082367762562543076410000009004718785178270142_);">
		<path id="XMLID_280_" style="fill:#B3B3B3;" d="M68.528,5.748L73,4.242l-0.239-3.43L68.126-0.06
			c-0.19-0.936-0.438-1.868-0.752-2.791l3.629-3.108l-1.511-3.087l-4.673,0.969c-0.592-0.896-1.237-1.737-1.934-2.523l2.099-4.236
			l-2.589-2.256L58.5-14.421c-0.802-0.534-1.635-1.013-2.495-1.439l0.351-4.72l-3.247-1.113l-2.603,3.948
			c-1.034-0.212-2.085-0.351-3.143-0.414l-1.505-4.484l-3.422,0.239l-0.869,4.649c-0.933,0.188-1.862,0.439-2.783,0.753
			l-3.101-3.636l-3.08,1.512l0.967,4.687c-0.893,0.591-1.734,1.24-2.519,1.937l-4.223-2.105l-2.252,2.596l2.667,3.902
			c-0.532,0.807-1.012,1.641-1.437,2.503L21.1-5.96l-1.11,3.252l3.939,2.612c-0.21,1.036-0.351,2.09-0.415,3.15l-4.472,1.508
			l0.239,3.431l4.636,0.87c0.187,0.937,0.437,1.869,0.752,2.792l-3.628,3.108l1.508,3.088l4.675-0.972
			c0.59,0.896,1.236,1.738,1.934,2.525l-2.098,4.234l2.587,2.257l3.894-2.671c0.803,0.534,1.638,1.012,2.497,1.439l-0.351,4.719
			l3.243,1.113l2.607-3.949c1.034,0.213,2.084,0.352,3.142,0.417l1.504,4.483l3.422-0.239l0.869-4.648
			c0.935-0.19,1.864-0.44,2.784-0.753l3.101,3.636l3.081-1.514l-0.968-4.684c0.894-0.592,1.734-1.24,2.517-1.938l4.225,2.104
			l2.25-2.595l-2.665-3.905c0.531-0.805,1.013-1.639,1.434-2.503l4.709,0.354l1.112-3.252L68.113,8.9
			C68.325,7.863,68.463,6.812,68.528,5.748 M46.021,12.671c-4.556,0-8.249-3.702-8.249-8.269c0-4.566,3.694-8.268,8.249-8.268
			c4.554,0,8.248,3.702,8.248,8.268C54.269,8.969,50.575,12.671,46.021,12.671"/>
	</g>
	<path id="XMLID_22127_" style="clip-path:url(#XMLID_00000082367762562543076410000009004718785178270142_);fill:#B3B3B3;" d="
		M37.635,49.094l4.504-1.407l-0.163-3.435l-4.615-0.973c-0.169-0.94-0.396-1.877-0.69-2.807l3.697-3.028l-1.443-3.119l-4.693,0.866
		c-0.572-0.909-1.199-1.764-1.877-2.565l2.191-4.188l-2.539-2.312l-3.952,2.585c-0.789-0.551-1.613-1.049-2.462-1.493l0.455-4.711
		l-3.222-1.185l-2.689,3.89c-1.029-0.234-2.076-0.397-3.133-0.484l-1.406-4.516l-3.426,0.163L11.2,25.001
		c-0.937,0.168-1.871,0.398-2.799,0.692l-3.02-3.704l-3.113,1.444l0.864,4.707c-0.906,0.571-1.761,1.201-2.561,1.881l-4.176-2.197
		l-2.309,2.546l2.581,3.96c-0.55,0.795-1.048,1.618-1.492,2.471l-4.7-0.457l-1.181,3.227l3.881,2.699
		c-0.232,1.031-0.397,2.082-0.484,3.141l-4.504,1.41l0.163,3.435l4.616,0.972c0.166,0.94,0.396,1.878,0.69,2.808l-3.696,3.027
		l1.44,3.121l4.695-0.868c0.57,0.909,1.198,1.765,1.878,2.567l-2.191,4.187l2.536,2.313l3.952-2.585
		c0.791,0.551,1.616,1.048,2.464,1.494L4.28,72.002l3.217,1.184l2.694-3.89c1.029,0.236,2.075,0.398,3.132,0.486l1.405,4.515
		l3.426-0.164l0.971-4.628c0.939-0.169,1.873-0.399,2.8-0.691l3.021,3.704l3.113-1.446l-0.865-4.705
		c0.907-0.572,1.761-1.202,2.56-1.882l4.178,2.197l2.306-2.545l-2.578-3.962c0.549-0.792,1.048-1.617,1.489-2.471l4.701,0.458
		l1.183-3.227l-3.881-2.699C37.386,51.204,37.547,50.156,37.635,49.094z M27.6,46.506h-4.695c-0.152-1.584-0.781-3.032-1.741-4.196
		l3.322-3.322C26.283,41.013,27.43,43.628,27.6,46.506z M23.429,37.931l-3.322,3.322c-1.164-0.961-2.611-1.589-4.196-1.741v-4.695
		C18.789,34.987,21.404,36.134,23.429,37.931z M14.416,34.817v4.695c-1.584,0.152-3.032,0.78-4.196,1.741l-3.322-3.322
		C8.924,36.134,11.538,34.987,14.416,34.817z M5.841,38.988l3.322,3.322c-0.961,1.164-1.589,2.611-1.741,4.196H2.727
		C2.897,43.628,4.044,41.013,5.841,38.988z M2.727,48.001h4.695c0.152,1.585,0.781,3.032,1.741,4.196l-3.322,3.322
		C4.044,53.493,2.897,50.879,2.727,48.001z M14.416,59.69c-2.878-0.17-5.492-1.317-7.518-3.114l3.322-3.322
		c1.164,0.961,2.611,1.59,4.196,1.741V59.69z M8.881,47.253c0-3.464,2.819-6.283,6.283-6.283c3.465,0,6.283,2.819,6.283,6.283
		c0,3.465-2.819,6.283-6.283,6.283C11.699,53.536,8.881,50.718,8.881,47.253z M15.911,59.69v-4.695
		c1.585-0.152,3.032-0.781,4.196-1.741l3.322,3.322C21.404,58.373,18.789,59.52,15.911,59.69z M24.486,55.519l-3.322-3.322
		c0.961-1.164,1.59-2.611,1.741-4.196H27.6C27.43,50.879,26.283,53.493,24.486,55.519z"/>
	<path id="XMLID_22191_" style="clip-path:url(#XMLID_00000082367762562543076410000009004718785178270142_);fill:#B3B3B3;" d="
		M13.005,6.856l2.119-0.662l-0.077-1.616L12.875,4.12c-0.079-0.442-0.187-0.883-0.325-1.321l1.739-1.425l-0.679-1.468l-2.208,0.407
		c-0.269-0.427-0.564-0.83-0.884-1.207l1.031-1.971l-1.195-1.088l-1.86,1.216C8.125-2.995,7.737-3.229,7.338-3.438l0.214-2.217
		L6.036-6.212l-1.265,1.83c-0.484-0.11-0.977-0.187-1.474-0.228L2.635-6.735L1.022-6.658L0.566-4.48
		c-0.441,0.079-0.88,0.187-1.317,0.325l-1.421-1.743l-1.465,0.679l0.407,2.215c-0.426,0.269-0.829,0.565-1.205,0.885L-6.4-3.151
		l-1.086,1.198l1.214,1.863c-0.259,0.374-0.493,0.761-0.702,1.163l-2.212-0.215l-0.556,1.518l1.826,1.27
		c-0.109,0.485-0.187,0.979-0.228,1.478l-2.119,0.663l0.077,1.616l2.172,0.457c0.078,0.443,0.186,0.884,0.325,1.321l-1.739,1.424
		l0.678,1.469l2.209-0.409c0.268,0.428,0.564,0.83,0.884,1.208l-1.031,1.97l1.194,1.088l1.86-1.216
		c0.372,0.26,0.76,0.493,1.16,0.703l-0.214,2.217l1.514,0.557l1.267-1.831c0.484,0.111,0.977,0.187,1.474,0.229l0.661,2.125
		l1.612-0.077l0.457-2.177c0.442-0.08,0.882-0.188,1.317-0.325l1.421,1.743l1.465-0.681l-0.407-2.214
		c0.427-0.269,0.829-0.565,1.204-0.886l1.966,1.034l1.085-1.198l-1.213-1.864c0.258-0.373,0.493-0.761,0.7-1.163l2.212,0.215
		l0.557-1.518l-1.826-1.27C12.887,7.849,12.963,7.356,13.005,6.856z"/>
	<path id="XMLID_6_" style="clip-path:url(#XMLID_00000082367762562543076410000009004718785178270142_);fill:#B3B3B3;" d="
		M69.005,47.856l2.119-0.662l-0.077-1.616l-2.172-0.458c-0.079-0.442-0.187-0.883-0.325-1.321l1.739-1.425l-0.679-1.468
		l-2.208,0.407c-0.269-0.427-0.564-0.83-0.883-1.207l1.031-1.971l-1.195-1.088l-1.86,1.216c-0.371-0.26-0.759-0.493-1.159-0.703
		l0.214-2.217l-1.516-0.557l-1.265,1.83c-0.484-0.11-0.977-0.187-1.474-0.228l-0.662-2.125l-1.612,0.077l-0.457,2.178
		c-0.441,0.079-0.881,0.187-1.317,0.326l-1.421-1.743l-1.465,0.679l0.406,2.215c-0.426,0.269-0.829,0.565-1.205,0.885L49.6,37.849
		l-1.086,1.198l1.214,1.863c-0.259,0.374-0.493,0.761-0.702,1.163l-2.212-0.215l-0.556,1.518l1.826,1.27
		c-0.109,0.485-0.187,0.979-0.228,1.478l-2.119,0.663l0.077,1.616l2.172,0.457c0.078,0.443,0.186,0.884,0.325,1.321l-1.739,1.424
		l0.678,1.468l2.209-0.409c0.268,0.428,0.564,0.83,0.884,1.208l-1.031,1.97l1.194,1.088l1.859-1.216
		c0.372,0.259,0.76,0.493,1.16,0.703l-0.214,2.216l1.514,0.557l1.267-1.831c0.484,0.111,0.977,0.187,1.474,0.229l0.661,2.125
		l1.612-0.077l0.457-2.177c0.442-0.08,0.882-0.188,1.317-0.325l1.421,1.743l1.465-0.681l-0.407-2.214
		c0.427-0.269,0.829-0.565,1.204-0.886l1.966,1.034l1.085-1.197l-1.213-1.864c0.258-0.373,0.493-0.761,0.701-1.163l2.212,0.215
		l0.557-1.519l-1.826-1.27C68.887,48.849,68.963,48.356,69.005,47.856z"/>
	<g id="XMLID_12_" style="opacity:0.46;clip-path:url(#XMLID_00000082367762562543076410000009004718785178270142_);">
		<g id="XMLID_25_">
			<path id="XMLID_26_" style="fill:#B3B3B3;" d="M304.528,5.748L309,4.242l-0.239-3.43l-4.636-0.871
				c-0.189-0.936-0.438-1.868-0.752-2.791l3.629-3.108l-1.511-3.087l-4.673,0.969c-0.592-0.896-1.237-1.737-1.933-2.523l2.099-4.236
				l-2.589-2.256l-3.894,2.671c-0.802-0.534-1.635-1.013-2.495-1.439l0.351-4.72l-3.247-1.113l-2.603,3.948
				c-1.034-0.212-2.085-0.351-3.143-0.414l-1.505-4.484l-3.422,0.239l-0.869,4.649c-0.933,0.188-1.862,0.439-2.783,0.753l-3.1-3.636
				l-3.08,1.512l0.967,4.687c-0.893,0.591-1.734,1.24-2.519,1.937l-4.223-2.105l-2.252,2.596l2.667,3.902
				c-0.532,0.807-1.012,1.641-1.437,2.503L257.1-5.96l-1.11,3.252l3.939,2.612c-0.21,1.036-0.351,2.09-0.415,3.15l-4.471,1.508
				l0.238,3.431l4.636,0.87c0.187,0.937,0.437,1.869,0.751,2.792l-3.628,3.108l1.508,3.088l4.675-0.972
				c0.59,0.896,1.236,1.738,1.934,2.525l-2.098,4.234l2.587,2.257l3.894-2.671c0.803,0.534,1.638,1.012,2.497,1.439l-0.351,4.719
				l3.243,1.113l2.607-3.949c1.034,0.213,2.084,0.352,3.142,0.417l1.504,4.483l3.422-0.239l0.869-4.648
				c0.935-0.19,1.864-0.44,2.784-0.753l3.101,3.636l3.081-1.514l-0.968-4.684c0.894-0.592,1.734-1.24,2.517-1.938l4.225,2.104
				l2.25-2.595l-2.665-3.905c0.531-0.805,1.012-1.639,1.434-2.503l4.71,0.354l1.112-3.252L304.113,8.9
				C304.325,7.863,304.463,6.812,304.528,5.748 M282.021,12.671c-4.555,0-8.249-3.702-8.249-8.269c0-4.566,3.694-8.268,8.249-8.268
				c4.554,0,8.248,3.702,8.248,8.268C290.269,8.969,286.575,12.671,282.021,12.671"/>
		</g>
		<path id="XMLID_14_" style="fill:#B3B3B3;" d="M273.635,49.094l4.504-1.407l-0.163-3.435l-4.615-0.973
			c-0.169-0.94-0.396-1.877-0.69-2.807l3.697-3.028l-1.443-3.119l-4.693,0.866c-0.572-0.909-1.199-1.764-1.877-2.565l2.191-4.188
			l-2.539-2.312l-3.952,2.585c-0.79-0.551-1.613-1.049-2.462-1.493l0.455-4.711l-3.222-1.185l-2.689,3.89
			c-1.029-0.234-2.076-0.397-3.133-0.484l-1.406-4.516l-3.426,0.163l-0.971,4.628c-0.937,0.168-1.871,0.398-2.799,0.692l-3.02-3.704
			l-3.113,1.444l0.864,4.707c-0.906,0.571-1.761,1.201-2.561,1.881l-4.176-2.197l-2.309,2.546l2.581,3.96
			c-0.55,0.795-1.048,1.618-1.492,2.471l-4.7-0.457l-1.181,3.227l3.88,2.699c-0.232,1.031-0.397,2.082-0.484,3.141l-4.504,1.41
			l0.163,3.435l4.616,0.972c0.166,0.94,0.396,1.878,0.69,2.808l-3.696,3.027l1.44,3.121l4.695-0.868
			c0.57,0.909,1.198,1.765,1.878,2.567l-2.191,4.187l2.536,2.313l3.952-2.585c0.791,0.551,1.616,1.048,2.464,1.494l-0.455,4.711
			l3.217,1.184l2.694-3.89c1.029,0.236,2.076,0.398,3.132,0.486l1.405,4.515l3.426-0.164l0.971-4.628
			c0.939-0.169,1.873-0.399,2.8-0.691l3.021,3.704l3.113-1.446l-0.865-4.705c0.907-0.572,1.761-1.202,2.56-1.882l4.178,2.197
			l2.306-2.545l-2.578-3.962c0.549-0.792,1.048-1.617,1.489-2.471l4.701,0.458l1.183-3.227l-3.881-2.699
			C273.386,51.204,273.547,50.156,273.635,49.094z M263.6,46.506h-4.695c-0.152-1.584-0.781-3.032-1.741-4.196l3.322-3.322
			C262.283,41.013,263.43,43.628,263.6,46.506z M259.429,37.931l-3.322,3.322c-1.164-0.961-2.612-1.589-4.196-1.741v-4.695
			C254.789,34.987,257.404,36.134,259.429,37.931z M250.416,34.817v4.695c-1.585,0.152-3.032,0.78-4.196,1.741l-3.322-3.322
			C244.924,36.134,247.538,34.987,250.416,34.817z M241.841,38.988l3.322,3.322c-0.961,1.164-1.589,2.611-1.741,4.196h-4.695
			C238.897,43.628,240.044,41.013,241.841,38.988z M238.727,48.001h4.695c0.152,1.585,0.781,3.032,1.741,4.196l-3.322,3.322
			C240.044,53.493,238.897,50.879,238.727,48.001z M250.416,59.69c-2.878-0.17-5.492-1.317-7.518-3.114l3.322-3.322
			c1.164,0.961,2.611,1.59,4.196,1.741V59.69z M244.881,47.253c0-3.464,2.819-6.283,6.283-6.283c3.465,0,6.283,2.819,6.283,6.283
			c0,3.465-2.819,6.283-6.283,6.283C247.699,53.536,244.881,50.718,244.881,47.253z M251.911,59.69v-4.695
			c1.585-0.152,3.032-0.781,4.196-1.741l3.322,3.322C257.404,58.373,254.789,59.52,251.911,59.69z M260.486,55.519l-3.322-3.322
			c0.961-1.164,1.59-2.611,1.741-4.196h4.695C263.43,50.879,262.283,53.493,260.486,55.519z"/>
		<path id="XMLID_13_" style="fill:#B3B3B3;" d="M249.004,6.856l2.119-0.662l-0.077-1.616l-2.172-0.458
			c-0.079-0.442-0.186-0.883-0.325-1.321l1.739-1.425l-0.679-1.468l-2.208,0.407c-0.269-0.427-0.564-0.83-0.883-1.207l1.031-1.971
			l-1.195-1.088l-1.86,1.216c-0.372-0.259-0.759-0.493-1.159-0.703l0.214-2.217l-1.516-0.557l-1.265,1.83
			c-0.484-0.11-0.977-0.187-1.474-0.228l-0.662-2.125l-1.612,0.077l-0.457,2.178c-0.441,0.079-0.88,0.187-1.317,0.325l-1.421-1.743
			l-1.465,0.679l0.406,2.215c-0.426,0.269-0.829,0.565-1.205,0.885L229.6-3.151l-1.086,1.198l1.214,1.863
			c-0.259,0.374-0.493,0.761-0.702,1.163l-2.212-0.215l-0.556,1.518l1.826,1.27c-0.109,0.485-0.187,0.979-0.228,1.478l-2.119,0.663
			l0.077,1.616l2.172,0.457c0.078,0.443,0.186,0.884,0.325,1.321l-1.739,1.424l0.678,1.469l2.209-0.409
			c0.268,0.428,0.564,0.83,0.884,1.208l-1.031,1.97l1.193,1.088l1.859-1.216c0.372,0.26,0.76,0.493,1.16,0.703l-0.214,2.217
			l1.514,0.557l1.267-1.831c0.484,0.111,0.977,0.187,1.474,0.229l0.661,2.125l1.612-0.077l0.457-2.177
			c0.442-0.08,0.882-0.188,1.317-0.325l1.421,1.743l1.465-0.681l-0.407-2.214c0.427-0.269,0.829-0.565,1.204-0.886l1.966,1.034
			l1.085-1.198l-1.213-1.864c0.258-0.373,0.493-0.761,0.701-1.163l2.212,0.215l0.557-1.518l-1.826-1.27
			C248.887,7.849,248.963,7.356,249.004,6.856z"/>
	</g>
	<g id="XMLID_29_" style="opacity:0.46;clip-path:url(#XMLID_00000082367762562543076410000009004718785178270142_);">
		<g id="XMLID_42_">
			<path id="XMLID_43_" style="fill:#B3B3B3;" d="M234.515,148.761c1.064-0.065,2.116-0.203,3.152-0.415l2.612,3.939l3.252-1.112
				l-0.354-4.71c0.863-0.421,1.698-0.903,2.503-1.434l3.905,2.665l2.595-2.25l-2.104-4.225c0.698-0.783,1.347-1.624,1.938-2.518
				l4.684,0.968l1.514-3.081l-3.636-3.101c0.313-0.92,0.563-1.849,0.753-2.784l4.648-0.869l0.239-3.422l-4.483-1.505
				c-0.065-1.058-0.204-2.108-0.417-3.142l3.949-2.607l-1.113-3.243l-4.72,0.351c-0.427-0.858-0.906-1.693-1.439-2.497l2.671-3.894
				l-2.257-2.587l-4.234,2.098c-0.786-0.698-1.628-1.344-2.525-1.934l0.972-4.674l-3.088-1.508l-3.108,3.629
				c-0.924-0.315-1.856-0.564-2.792-0.752l-0.87-4.636l-3.431-0.238l-1.508,4.471c-1.061,0.064-2.114,0.205-3.15,0.415l-2.612-3.939
				l-3.252,1.11l0.354,4.709c-0.863,0.425-1.697,0.905-2.503,1.437l-3.902-2.668l-2.596,2.252l2.105,4.223
				c-0.697,0.784-1.347,1.625-1.937,2.519l-4.687-0.967l-1.512,3.08l3.636,3.101c-0.314,0.921-0.565,1.85-0.753,2.783l-4.649,0.869
				l-0.239,3.422l4.484,1.506c0.064,1.058,0.203,2.109,0.415,3.143l-3.948,2.603l1.113,3.247l4.72-0.352
				c0.426,0.859,0.905,1.693,1.439,2.495l-2.671,3.894l2.256,2.589l4.236-2.099c0.786,0.696,1.627,1.342,2.523,1.934l-0.969,4.673
				l3.087,1.511l3.108-3.629c0.924,0.314,1.855,0.563,2.791,0.752l0.871,4.636l3.43,0.239L234.515,148.761 M241.438,126.254
				c0,4.554-3.702,8.248-8.269,8.248c-4.566,0-8.268-3.694-8.268-8.248c0-4.556,3.702-8.249,8.268-8.249
				C237.736,118.005,241.438,121.699,241.438,126.254"/>
		</g>
		<path id="XMLID_31_" style="fill:#B3B3B3;" d="M281.003,117.384l2.699,3.881l3.227-1.183l-0.458-4.701
			c0.854-0.44,1.678-0.94,2.471-1.489l3.962,2.578l2.545-2.306l-2.197-4.178c0.68-0.798,1.31-1.653,1.882-2.559l4.705,0.865
			l1.446-3.113l-3.704-3.021c0.293-0.926,0.522-1.861,0.691-2.8l4.628-0.971l0.164-3.426l-4.515-1.405
			c-0.088-1.056-0.25-2.103-0.486-3.132l3.891-2.694l-1.184-3.217l-4.711,0.455c-0.446-0.849-0.943-1.673-1.494-2.464l2.585-3.952
			l-2.313-2.536l-4.187,2.191c-0.802-0.68-1.658-1.308-2.567-1.878l0.868-4.695l-3.121-1.44l-3.027,3.696
			c-0.93-0.294-1.868-0.523-2.808-0.69l-0.972-4.616l-3.435-0.163l-1.41,4.504c-1.059,0.088-2.109,0.252-3.141,0.484l-2.698-3.881
			l-3.227,1.181l0.457,4.7c-0.853,0.444-1.676,0.942-2.471,1.492l-3.96-2.581l-2.546,2.309l2.197,4.176
			c-0.68,0.799-1.31,1.654-1.881,2.561l-4.707-0.864l-1.444,3.113l3.704,3.02c-0.293,0.927-0.524,1.862-0.692,2.799l-4.628,0.971
			l-0.163,3.426l4.516,1.406c0.087,1.056,0.249,2.104,0.484,3.133l-3.89,2.689l1.185,3.222l4.711-0.455
			c0.445,0.85,0.942,1.673,1.493,2.462l-2.585,3.952l2.312,2.539l4.188-2.191c0.801,0.679,1.656,1.306,2.565,1.877l-0.866,4.693
			l3.119,1.443l3.028-3.697c0.93,0.294,1.867,0.521,2.807,0.69l0.973,4.615l3.435,0.163l1.407-4.504
			C278.923,117.78,279.971,117.618,281.003,117.384z M267.755,104.719l3.322-3.322c1.164,0.961,2.612,1.59,4.196,1.741v4.695
			C272.395,107.663,269.781,106.516,267.755,104.719z M263.584,96.144h4.695c0.152,1.585,0.78,3.032,1.741,4.196l-3.322,3.322
			C264.901,101.636,263.754,99.022,263.584,96.144z M266.698,87.131l3.322,3.322c-0.961,1.164-1.589,2.612-1.741,4.196h-4.695
			C263.754,91.771,264.901,89.156,266.698,87.131z M275.273,82.96v4.695c-1.585,0.152-3.032,0.781-4.196,1.741l-3.322-3.322
			C269.781,84.277,272.395,83.13,275.273,82.96z M284.286,86.074l-3.322,3.322c-1.164-0.961-2.612-1.59-4.196-1.741V82.96
			C279.646,83.13,282.261,84.277,284.286,86.074z M283.763,94.649c-0.152-1.585-0.781-3.032-1.741-4.196l3.322-3.322
			c1.797,2.025,2.944,4.64,3.114,7.518H283.763z M282.304,95.396c0,3.465-2.819,6.283-6.283,6.283c-3.464,0-6.283-2.819-6.283-6.283
			c0-3.464,2.819-6.283,6.283-6.283C279.485,89.113,282.304,91.932,282.304,95.396z M285.343,103.662l-3.322-3.322
			c0.961-1.164,1.59-2.611,1.741-4.196h4.695C288.287,99.022,287.14,101.636,285.343,103.662z M276.768,107.833v-4.695
			c1.585-0.152,3.032-0.781,4.196-1.741l3.322,3.322C282.261,106.516,279.646,107.663,276.768,107.833z"/>
		<path id="XMLID_30_" style="fill:#B3B3B3;" d="M235.624,93.237l-0.662,2.119l-1.616-0.077l-0.458-2.172
			c-0.442-0.079-0.883-0.187-1.321-0.325l-1.425,1.739l-1.468-0.679l0.407-2.208c-0.427-0.269-0.83-0.564-1.207-0.883l-1.971,1.031
			l-1.088-1.195l1.216-1.86c-0.26-0.371-0.493-0.759-0.703-1.159l-2.217,0.214l-0.557-1.516l1.83-1.265
			c-0.11-0.484-0.187-0.977-0.227-1.474l-2.125-0.662l0.077-1.612l2.178-0.457c0.079-0.441,0.187-0.881,0.326-1.317l-1.743-1.421
			l0.679-1.465l2.215,0.407c0.269-0.426,0.565-0.829,0.885-1.205l-1.034-1.965l1.198-1.086l1.863,1.214
			c0.374-0.259,0.761-0.493,1.163-0.702l-0.215-2.212l1.518-0.556l1.27,1.826c0.485-0.109,0.979-0.187,1.478-0.228l0.663-2.119
			l1.616,0.077l0.457,2.172c0.443,0.078,0.884,0.186,1.321,0.325l1.424-1.739l1.469,0.678l-0.409,2.209
			c0.428,0.268,0.831,0.564,1.208,0.884l1.97-1.031l1.088,1.193l-1.216,1.86c0.26,0.372,0.493,0.76,0.703,1.16l2.217-0.214
			l0.557,1.514l-1.831,1.267c0.111,0.484,0.187,0.977,0.229,1.474l2.125,0.661l-0.077,1.612l-2.177,0.457
			c-0.08,0.442-0.188,0.882-0.325,1.317l1.743,1.421l-0.68,1.465l-2.214-0.407c-0.269,0.427-0.565,0.829-0.886,1.204l1.034,1.966
			l-1.197,1.085l-1.864-1.213c-0.373,0.258-0.761,0.493-1.163,0.701l0.215,2.212l-1.518,0.557l-1.27-1.826
			C236.617,93.12,236.123,93.196,235.624,93.237z"/>
	</g>
</g>
<g id="Design">
	<defs>
		<rect id="XMLID_5_" width="270" height="125"/>
	</defs>
	<clipPath id="XMLID_00000175315101235096454350000018374321392597110701_">
		<use xlink:href="#XMLID_5_"  style="overflow:visible;"/>
	</clipPath>
	<g id="XMLID_46_" style="opacity:0.65;clip-path:url(#XMLID_00000175315101235096454350000018374321392597110701_);">
		<polygon id="XMLID_94_" style="fill:#878787;" points="37.901,77.975 32.853,97.029 31.898,91.218 36.946,72.164 		"/>
		<polygon id="XMLID_93_" style="fill:#8C8C8C;" points="73.87,82.115 68.822,101.169 64.985,105.693 70.033,86.638 		"/>
		<polygon id="XMLID_92_" style="fill:#9A9A9A;" points="21.5,81.308 16.003,75.761 10.955,94.816 16.453,100.363 		"/>
		<polygon id="XMLID_91_" style="fill:#A1A1A1;" points="90.02,95.707 84.972,114.762 77.373,116.779 82.421,97.724 		"/>
		<polygon id="XMLID_90_" style="fill:#A8A8A8;" points="12.382,90.038 7.334,109.093 -1.232,105.299 3.816,86.244 		"/>
		<polygon id="XMLID_89_" style="fill:#AAAAAA;" points="95.071,110.837 90.024,129.891 80.688,128.859 85.736,109.804 		"/>
		<g id="XMLID_86_" style="enable-background:new    ;">
			<defs>
				<path id="XMLID_87_" style="enable-background:new    ;" d="M6.788,110.716l5.048-19.055c-0.124,0.469-0.222,0.945-0.293,1.428
					l-5.048,19.055C6.565,111.661,6.663,111.185,6.788,110.716z"/>
			</defs>
			<clipPath id="XMLID_00000170965969571877360250000003792370927604582823_">
				<use xlink:href="#XMLID_87_"  style="overflow:visible;"/>
			</clipPath>
			<path id="XMLID_88_" style="clip-path:url(#XMLID_00000170965969571877360250000003792370927604582823_);fill:#878787;" d="
				M11.543,93.089l-5.048,19.055c0.071-0.483,0.169-0.959,0.293-1.428l5.048-19.055C11.711,92.13,11.613,92.606,11.543,93.089"/>
		</g>
		<g id="XMLID_83_" style="enable-background:new    ;">
			<defs>
				<path id="XMLID_84_" style="enable-background:new    ;" d="M85.453,111.164l-5.048,19.055
					c-0.152,0.573-0.343,1.136-0.571,1.689l5.048-19.054C85.11,112.3,85.301,111.737,85.453,111.164z"/>
			</defs>
			<clipPath id="XMLID_00000167377112657587586520000015834406689201979796_">
				<use xlink:href="#XMLID_84_"  style="overflow:visible;"/>
			</clipPath>
			<path id="XMLID_85_" style="clip-path:url(#XMLID_00000167377112657587586520000015834406689201979796_);fill:#878787;" d="
				M85.453,111.164l-5.048,19.055c-0.152,0.573-0.343,1.136-0.571,1.689l5.048-19.054C85.11,112.3,85.301,111.737,85.453,111.164"/>
		</g>
		<polygon id="XMLID_82_" style="fill:#AAAAAA;" points="12.981,101.817 7.933,120.871 -1.388,119.854 3.66,100.8 		"/>
		<polygon id="XMLID_81_" style="fill:#878787;" points="3.66,100.8 -1.388,119.854 -2.843,111.122 2.204,92.067 		"/>
		<polygon id="XMLID_79_" style="fill:#A8A8A8;" points="87.665,123.438 82.617,142.493 74.065,138.695 79.113,119.641 		"/>
		<polygon id="XMLID_77_" style="fill:#8C8C8C;" points="93.436,116.654 88.388,135.708 82.617,142.493 87.665,123.438 		"/>
		<path id="XMLID_76_" style="fill:#8B8B8B;" d="M9.348,123.47c0.139,0.221,0.283,0.442,0.432,0.663l5.048-19.055
			c-0.163-0.241-0.317-0.482-0.467-0.723c-0.225-0.36-0.436-0.72-0.635-1.079c-0.043-0.077-0.083-0.155-0.125-0.232
			c-0.221-0.41-0.431-0.819-0.621-1.228l-5.048,19.055c0.19,0.409,0.4,0.818,0.621,1.228c0.025,0.046,0.044,0.092,0.07,0.138
			c0.017,0.031,0.038,0.063,0.055,0.094c0.199,0.359,0.41,0.719,0.635,1.079C9.325,123.43,9.336,123.45,9.348,123.47z"/>
		<g id="XMLID_69_" style="enable-background:new    ;">
			<defs>
				<path id="XMLID_70_" style="enable-background:new    ;" d="M79.113,119.641l-5.048,19.055c-0.988,0.682-2.082,1.31-3.281,1.876
					l5.048-19.055C77.031,120.951,78.125,120.323,79.113,119.641z"/>
			</defs>
			<clipPath id="XMLID_00000153688033878443984610000012753670474056035740_">
				<use xlink:href="#XMLID_70_"  style="overflow:visible;"/>
			</clipPath>
			<path id="XMLID_75_" style="clip-path:url(#XMLID_00000153688033878443984610000012753670474056035740_);fill:#909090;" d="
				M79.113,119.641l-5.048,19.055c-0.065,0.045-0.131,0.09-0.197,0.135l5.048-19.055C78.982,119.731,79.047,119.686,79.113,119.641"
				/>
			<path id="XMLID_74_" style="clip-path:url(#XMLID_00000153688033878443984610000012753670474056035740_);fill:#919191;" d="
				M78.915,119.775l-5.048,19.055c-0.31,0.209-0.631,0.413-0.961,0.611l5.048-19.054C78.285,120.188,78.605,119.984,78.915,119.775"
				/>
			<path id="XMLID_73_" style="clip-path:url(#XMLID_00000153688033878443984610000012753670474056035740_);fill:#939393;" d="
				M77.954,120.386l-5.048,19.054c-0.319,0.191-0.647,0.377-0.985,0.558l5.048-19.054C77.307,120.764,77.635,120.577,77.954,120.386
				"/>
			<path id="XMLID_72_" style="clip-path:url(#XMLID_00000153688033878443984610000012753670474056035740_);fill:#959595;" d="
				M76.969,120.945l-5.048,19.054c-0.329,0.176-0.667,0.347-1.013,0.513l5.048-19.055C76.303,121.292,76.641,121.121,76.969,120.945
				"/>
			<path id="XMLID_71_" style="clip-path:url(#XMLID_00000153688033878443984610000012753670474056035740_);fill:#969696;" d="
				M75.956,121.458l-5.048,19.055c-0.041,0.02-0.083,0.04-0.124,0.059l5.048-19.055C75.873,121.497,75.915,121.478,75.956,121.458"
				/>
		</g>
		<polygon id="XMLID_68_" style="fill:#9A9A9A;" points="11.38,111.305 6.332,130.359 2.256,126.251 7.304,107.197 		"/>
		<path id="XMLID_67_" style="fill:#9C9C9C;" d="M25.556,115.156c-0.243-0.158-0.485-0.318-0.724-0.479
			c-0.141-0.095-0.282-0.191-0.421-0.288c-0.227-0.157-0.451-0.316-0.674-0.476c-0.193-0.139-0.389-0.276-0.579-0.417L18.11,132.55
			c0.104,0.077,0.209,0.154,0.314,0.23c0.086,0.063,0.176,0.123,0.263,0.186c0.223,0.16,0.449,0.32,0.676,0.477
			c0.069,0.048,0.136,0.098,0.206,0.145c0.071,0.049,0.144,0.094,0.215,0.143c0.24,0.162,0.482,0.322,0.726,0.481
			c0.088,0.057,0.174,0.117,0.263,0.174c0.047,0.03,0.095,0.058,0.142,0.088c0.291,0.186,0.586,0.368,0.882,0.549
			c0.078,0.047,0.153,0.097,0.231,0.144c0.037,0.022,0.074,0.045,0.111,0.067l5.048-19.055c-0.116-0.069-0.229-0.141-0.343-0.211
			c-0.296-0.18-0.59-0.362-0.88-0.547C25.827,115.333,25.692,115.244,25.556,115.156z"/>
		<g id="XMLID_61_" style="enable-background:new    ;">
			<defs>
				<path id="XMLID_62_" style="enable-background:new    ;" d="M64.311,124.585l-5.048,19.054
					c-1.586,0.176-3.216,0.266-4.858,0.285l5.048-19.055C61.094,124.851,62.724,124.762,64.311,124.585z"/>
			</defs>
			<clipPath id="XMLID_00000036250313963441498410000000782272608676600466_">
				<use xlink:href="#XMLID_62_"  style="overflow:visible;"/>
			</clipPath>
			<path id="XMLID_66_" style="clip-path:url(#XMLID_00000036250313963441498410000000782272608676600466_);fill:#A4A4A4;" d="
				M64.311,124.585l-5.048,19.054c-0.378,0.042-0.759,0.079-1.142,0.112l5.048-19.055C63.551,124.664,63.932,124.627,64.311,124.585
				"/>
			<path id="XMLID_65_" style="clip-path:url(#XMLID_00000036250313963441498410000000782272608676600466_);fill:#A5A5A5;" d="
				M63.168,124.697l-5.048,19.055c-0.513,0.043-1.029,0.078-1.549,0.105l5.048-19.055C62.139,124.775,62.655,124.74,63.168,124.697"
				/>
			<path id="XMLID_64_" style="clip-path:url(#XMLID_00000036250313963441498410000000782272608676600466_);fill:#A7A7A7;" d="
				M61.62,124.802l-5.048,19.055c-0.553,0.029-1.11,0.049-1.668,0.06l5.048-19.055C60.51,124.851,61.066,124.831,61.62,124.802"/>
			<path id="XMLID_63_" style="clip-path:url(#XMLID_00000036250313963441498410000000782272608676600466_);fill:#A8A8A8;" d="
				M59.951,124.862l-5.048,19.055c-0.166,0.003-0.333,0.006-0.5,0.008l5.048-19.055C59.619,124.868,59.785,124.866,59.951,124.862"
				/>
		</g>
		<path id="XMLID_60_" style="fill:#D0D0D0;" d="M40.173,121.93l-5.048,19.054c0.134,0.042,0.269,0.084,0.404,0.125
			c0.395,0.121,0.797,0.227,1.195,0.341c0.367,0.105,0.732,0.215,1.101,0.314c0.055,0.015,0.109,0.032,0.164,0.047
			c0.751,0.199,1.506,0.384,2.265,0.555l5.048-19.054c-0.814-0.184-1.624-0.387-2.429-0.602c-0.368-0.099-0.732-0.209-1.099-0.313
			C41.239,122.244,40.702,122.096,40.173,121.93z"/>
		<polygon id="XMLID_59_" style="fill:#9A9A9A;" points="15.567,115.52 10.519,134.574 6.332,130.359 11.38,111.305 		"/>
		<polygon id="XMLID_58_" style="fill:#A0A0A0;" points="23.158,113.495 18.11,132.55 10.519,134.574 15.567,115.52 		"/>
		<polygon id="XMLID_57_" style="fill:#9B9B9B;" points="69.951,130.113 64.903,149.167 59.263,143.64 64.311,124.585 		"/>
		<polygon id="XMLID_56_" style="fill:#A0A0A0;" points="70.527,147.66 76.296,146.115 81.343,127.06 75.575,128.605 
			69.951,130.113 64.903,149.167 		"/>
		<polygon id="XMLID_55_" style="fill:#A8A8A8;" points="29.836,123.585 24.788,142.639 18.438,139.832 23.486,120.778 		"/>
		<polygon id="XMLID_54_" style="fill:#A8A8A8;" points="36.349,126.463 31.301,145.518 24.788,142.639 29.836,123.585 		"/>
		<polygon id="XMLID_53_" style="fill:#8C8C8C;" points="40.173,121.93 35.125,140.985 31.301,145.518 36.349,126.463 		"/>
		<polygon id="XMLID_52_" style="fill:#AAAAAA;" points="48.286,148.971 55.376,149.741 60.424,130.686 53.334,129.916 
			46.424,129.165 41.376,148.219 		"/>
		<path id="XMLID_49_" style="fill:#888888;" d="M15.567,115.52l-4.187-4.215l-4.076-4.108l7.524-2.118
			c-0.735-1.09-1.344-2.176-1.848-3.262L3.66,100.8l-1.456-8.732l9.338,1.022c0.154-1.051,0.436-2.07,0.839-3.051l-8.566-3.794
			l5.752-6.796l8.557,3.79c1.013-0.705,2.14-1.348,3.375-1.931l-5.497-5.546l11.41-3.035l5.495,5.544
			c1.629-0.182,3.298-0.275,4.992-0.296l-0.954-5.811l14.003,1.537l0.962,5.819c1.776,0.4,3.535,0.875,5.271,1.424l3.844-4.525
			l12.844,5.697l-3.837,4.524c1.449,0.861,2.833,1.784,4.14,2.756l7.605-2.019l8.242,8.332l-7.599,2.017
			c0.762,1.121,1.39,2.24,1.899,3.353l9.326,1.032l1.425,8.728l-9.335-1.032c-0.16,1.05-0.447,2.064-0.854,3.049l8.554,3.8
			l-5.771,6.785l-8.552-3.798c-0.988,0.682-2.082,1.31-3.281,1.876l5.511,5.543l-5.769,1.546l-5.624,1.507l-5.64-5.527
			c-1.586,0.176-3.216,0.266-4.859,0.285l0.972,5.816l-7.09-0.77l-6.91-0.752l-1.122-5.852c-1.731-0.39-3.445-0.855-5.129-1.382
			l-3.824,4.533l-6.513-2.878l-6.35-2.807l3.701-4.599c-1.403-0.841-2.753-1.738-4.029-2.684L15.567,115.52z M40,92.745
			c-6.564,1.759-8.018,7.074-3.247,11.872c4.766,4.793,13.955,7.257,20.519,5.498c6.568-1.76,8.024-7.076,3.258-11.869
			C55.76,93.448,46.568,90.985,40,92.745"/>
		<polygon id="XMLID_48_" style="fill:#888888;" points="46.424,129.165 41.376,148.219 40.254,142.367 45.302,123.312 		"/>
	</g>
</g>
</svg>
