<svg width="728" height="472.99999999999994" xmlns="http://www.w3.org/2000/svg">
 <g>
  <title>Layer 1</title>
  <g fill="None" fill-opacity="0" stroke="#268E8F" stroke-opacity="0" stroke-width="0.3" id="svg_1">
   <path d="m0,473l728,0l0,-473l-728,0l0,473m316,-371c-2.42999,-7.65 2.10999,-15.85 5.31,-22.69c3.19,-6.85 7.34,-13.3 11.61002,-19.39c4.26999,-6.1 8.88998,-11.4 14.32999,-16.67c5.44,-5.27 9.79001,-9.63 16,-14c6.20999,-4.37 12.29001,-8.1 19.45001,-11.56c7.14999,-3.45 14.84,-5.91 22.97,-8.02c8.12997,-2.1 18.29999,-3.86 27.32999,-3.67c9.03,0.19 20.39001,-0.28 29,1c8.60999,1.28 16.31,4.38 24.22,6.78c7.92001,2.39 15.07999,5.22 22.03,8.97c6.94,3.76 13.27002,5.94 19.83002,10.17c6.54999,4.24 13.03998,7.18 19.62,11.38c6.57001,4.21 12.89001,7.39 19.98999,11.01c7.10999,3.61 13.77002,6.57 21.38,9.62c7.62,3.04 14.79999,4.68 23.14996,6.85c8.35004,2.16 19.61005,2.52 28.78003,2.22c9.16998,-0.3 19.65002,-0.15 28.01001,-2.99c8.35999,-2.85 14.01001,-3.54 21.69,-8.32c7.66998,-4.77 12.08002,-4.36 19.52997,-11.46c7.45001,-7.1 13.82001,-5.15 9.84003,4.84c-3.97003,10 -5.26001,13.33 -9.82001,21.18c-4.57001,7.84 -7.02002,11.42 -12,18c-4.98999,6.57 -9.46002,10.34 -15.5,15.5c-6.03003,5.17 -10.78998,9.24 -17.5,13.5c-6.70001,4.27 -12.81,6.13 -20.27002,9.73c-7.46997,3.59001 -15.53998,5.08 -23.97998,7.02c-8.44,1.94 -19.84003,2.10001 -29,2c-9.15997,-0.10001 -18.87,-1.58 -27.07001,-3.92999c-8.21002,-2.34001 -15.57001,-3.71001 -23,-7c-7.44,-3.29001 -14.33002,-5.81001 -21.15997,-9.84c-6.83002,-4.03001 -13.12997,-7.23 -19.85001,-11.15c-6.72,-3.92 -12.33002,-7 -19.15002,-10.85c-6.81998,-3.85001 -13.59,-6.51 -20.84998,-10.15c-7.25,-3.65 -15.02002,-5.22 -22.94,-8.06001c-7.93002,-2.82999 -17.27002,-3.89999 -25.98001,-5.02c-8.70999,-1.12 -19.29001,-1.18 -28,0c-8.72,1.18 -18.26999,2.02 -26.22,4.78c-7.95999,2.76 -14.62997,5.4 -21.85999,9.14c-7.22,3.75 -12.35001,8.53 -19.92001,11.08m-187.99998,-78c11.40999,2.36 15.64998,13.87 20.92,23.08c5.26999,9.21 10.78,19.36 16.33,28.67c5.56,9.3 10.67,19.38 16.06,28.94c5.37999,9.57 11.09,18.82 16.46001,28.53999c5.37,9.72 10.19,18.2 16,28c5.81,9.79999 10.59,18.97 15.20999,29.79001c4.61,10.83 -2.73999,22.87 -8.89999,32.06c-6.15001,9.19 -14.66,19.45 -8.78,29.62c5.89,10.15999 10.86,19.19002 15.62,29.37999c4.77,10.18002 15.18002,20.53 20.85002,8.69c5.67,-11.84 10.52998,-17.34998 18.48,-26.51999c7.94,-9.17 14.64999,-13.97 24.82999,-20.17c10.19,-6.2 21.31003,-9.03 32.99002,-12.00999c11.69,-2.98001 29.19,-1.09001 40.92999,-1.07001c11.73999,0.02 29.54001,6.22 23.69,18.69c-5.84,12.48001 -10.98001,17.60999 -16.45999,28.54001c-5.48001,10.92999 -11.12003,18.31998 -16.48001,28.51999c-5.37,10.19 -11.06,18.73999 -16.5,28.5c-5.45001,9.75 -10.53,18.44 -16.01999,27.98001c-5.49002,9.53998 -10.69,19.41 -16.15002,28.84998c-5.44998,9.44 -11.37997,19.14001 -16.37997,28.62003c-5.01001,9.47 -12.26001,18.97998 -16.47,28.53c-4.21002,9.54999 -15.10001,21.34998 -25.92,15.45999c-10.83,-5.88 -12.38,-17.23001 -18.61,-26.39001c-6.23999,-9.14996 -10.17999,-19.62994 -16.00999,-28.98999c-5.82001,-9.37 -10.55,-19.47 -16,-29c-5.44,-9.54001 -11.26001,-18.90997 -16.46001,-28.54001c-5.2,-9.62994 -10.61,-18.45999 -16,-28c-5.39,-9.53998 -10.40999,-19.53 -16,-29c-5.59,-9.47 -10.81999,-19.23999 -16.14999,-28.84998c-5.34,-9.60001 -10.89,-19.16002 -16.32999,-28.67c-5.45,-9.5 -10.32,-18.77 -15.67001,-28.33c-5.36,-9.55 -11.22,-18.92 -16.38,-28.62001c-5.17,-9.68999 -11.32,-18.75 -16.46999,-28.53c-5.15,-9.78 -11,-19 -16.15,-28.85001c-5.15,-9.86 -11.61,-18.4 -16.38,-28.62c-4.77,-10.21001 -11.69,-17.05 -15.95,-28.05c-4.26,-10.99 -14.46,-16.55 -14.75,-30.25c-0.28,-13.71 20.45,-13.45 33,-12c12.55,1.45 31.45,-1.6 45,0c13.55,1.6 31.42,-2.81 45,0m263,104c9.20999,1.11 19.92001,4.42999 29.07001,6.92999c9.16,2.49001 18.13998,6.33 26.62,10.38c8.48999,4.04001 15.85001,8.57001 24.01001,12.99001c8.14999,4.42999 14.50998,9.64999 22.54999,14.45c8.03,4.81 15.39001,8.75 24,13c8.59998,4.25999 18.20001,6.42 27.76001,9.24001c9.56,2.83 21.20996,4.48999 31.98999,4.00999c10.78003,-0.48 22.62,-0.97 32.66998,-4.33c10.04999,-3.36 16.67004,-5.55 26.36005,-10.64999c9.67999,-5.09001 12.31,-7.31 22.66998,-14.32001c10.34998,-7.02 7.20001,7.16 2.52997,15.53c-4.67999,8.37001 -7.52997,16.28 -13.47998,23.52c-5.96002,7.24001 -11.34003,12.42 -18,19c-6.65997,6.58 -12.21997,10.75999 -20,16c-7.77002,5.25 -15.82001,8.48 -24.77002,12.23c-8.95996,3.74001 -18.82996,6.59001 -28.97998,8.02c-10.15997,1.42001 -23.65997,2.57001 -34,1c-10.35001,-1.57001 -20.89001,-3.22 -30.22,-6.78c-9.34,-3.55 -17.26999,-6.75999 -25.85999,-11.14c-8.58002,-4.39 -14.87003,-8.31 -23.15002,-12.85001c-8.26999,-4.53999 -15.35999,-8.70999 -23.84998,-13.14999c-8.48001,-4.44 -16.41,-7.82001 -25.60001,-11.40001c-9.19,-3.57999 -19.31,-5.37999 -29.33002,-7.67c-10.01999,-2.28999 -24.26999,-2.37999 -34.98999,-2.00999c-10.72,0.37 -22.39001,1.83 -32.01999,4.98c-9.64001,3.14 -17.99002,4.76001 -26.21002,10.79001c-8.22,6.03 -18.85999,10.53 -14.84,-0.84001c4.01001,-11.37999 6.67001,-16.14998 11.84,-25.15999c5.18002,-9.01001 9.45001,-13.79999 15.98001,-21.01999c6.54001,-7.21002 11.92001,-11.94 19.5,-17.5c7.57999,-5.56001 15.14001,-9.14999 23.98001,-13.02c8.84,-3.87 18.84,-6.28 28.78,-8.22c9.92999,-1.95 24.19,-3.31999 34.98999,-2.00999m214,163.00002c2.32001,7.62997 -3.03003,14.98001 -6.29999,21.70001c-3.27002,6.72 -8.33002,12.06 -12.95001,18.04999c-4.62,5.98999 -9.63,10.54999 -15.5,15.5c-5.87,4.94 -11.06,8.20001 -17.94,12.06c-6.89001,3.85001 -13.32001,7.35001 -21.33002,9.67001c-8.01001,2.31 -16.96997,4.97 -25.97998,5.01999c-9.01001,0.04999 -19.76999,0.07999 -28.22,-1.78c-8.45001,-1.85004 -16.17001,-3.79999 -24,-7c-7.82999,-3.20001 -13.73001,-6.64999 -21.85001,-9.14999c-8.13,-2.49002 -12.78998,-7.02002 -22,-8c-9.22,-0.97 -16.95999,-5.51001 -27.92999,-3.07001c-10.97,2.44 -18.10999,-3.76001 -12.07999,-13.07999c6.03998,-9.31006 5.22998,-12.63 10.38998,-20.61005c5.14999,-7.98999 5.35001,-11.48001 11.94,-18.06c6.57999,-6.57999 16.95001,-5.35999 25.75,-5.25c8.79999,0.10999 18.12997,2.31 26.07001,4.92999c7.94998,2.61002 14.03,5.17001 21.60999,8.39001c7.57001,3.22 13.46002,6.87 21.39999,9.60001c7.93002,2.73999 16.43002,4.28 24.93002,6.06998c8.5,1.79001 18.46997,1.92001 27.20996,1.23001c8.74005,-0.69 17.99005,-2.44 25.85004,-5.14999c7.85999,-2.70001 14.48999,-5.57001 21.63,-9.37997c7.13,-3.79999 11.72998,-9.20999 19.29999,-11.69z" id="svg_2"/>
  </g>
  <g fill="None" fill-opacity="0" stroke="#268E8F" stroke-width="0.3" id="svg_3">
   <path d="m316,102c7.57001,-2.55 12.70001,-7.33 19.92001,-11.08c7.22998,-3.74 13.89999,-6.38 21.85999,-9.14c7.95001,-2.76 17.5,-3.6 26.22,-4.78c8.70999,-1.18 19.29001,-1.12 28,0c8.70999,1.12 18.04999,2.19 25.98001,5.02c7.91998,2.84 15.69,4.41 22.94,8.06001c7.25998,3.64 14.03,6.3 20.84998,10.15c6.82001,3.85 12.43002,6.93 19.15002,10.85c6.72,3.92 13.01999,7.12 19.85001,11.15c6.82996,4.03 13.71997,6.55 21.15997,9.84c7.42999,3.28999 14.78998,4.65999 23,7c8.20001,2.34999 17.91003,3.82999 27.07001,3.92999c9.15997,0.10001 20.56,-0.06 29,-2c8.44,-1.94 16.51001,-3.42999 23.97998,-7.02c7.46002,-3.59999 13.57001,-5.45999 20.27002,-9.73c6.71002,-4.26 11.46997,-8.33 17.5,-13.5c6.03998,-5.16 10.51001,-8.93 15.5,-15.5c4.97998,-6.58 7.42999,-10.16 12,-18c4.56,-7.85 5.84998,-11.18 9.82001,-21.18c3.97998,-9.99 -2.39001,-11.94 -9.84003,-4.84c-7.44995,7.1 -11.85999,6.69 -19.52997,11.46c-7.67999,4.78 -13.33002,5.47001 -21.69,8.32c-8.35999,2.84 -18.84003,2.68999 -28.01001,2.99c-9.16998,0.3 -20.42999,-0.06 -28.78003,-2.22c-8.34998,-2.17 -15.52997,-3.81 -23.14996,-6.85c-7.60999,-3.05 -14.27002,-6.01 -21.38,-9.62c-7.09998,-3.62 -13.41998,-6.8 -19.98999,-11.01c-6.58002,-4.2 -13.07001,-7.14 -19.62,-11.38c-6.56,-4.23 -12.89001,-6.41 -19.83002,-10.17c-6.95001,-3.75 -14.10999,-6.58 -22.03,-8.97c-7.91,-2.4 -15.61002,-5.5 -24.22,-6.78c-8.60999,-1.28 -19.97,-0.81 -29,-1c-9.03,-0.19 -19.20001,1.57 -27.32999,3.67c-8.13,2.11 -15.82001,4.57 -22.97,8.02c-7.16,3.46 -13.24002,7.19 -19.45001,11.56c-6.20999,4.37 -10.56,8.73 -16,14c-5.44,5.27 -10.06,10.57 -14.32999,16.67c-4.27002,6.09 -8.42001,12.54 -11.61002,19.39c-3.20001,6.84 -7.73999,15.04 -5.31,22.69z" id="svg_4"/>
  </g>
  <g fill="None" fill-opacity="0" stroke="#268E8F" stroke-width="0.3" id="svg_5">
   <path d="m128,24c-13.58,-2.81 -31.45,1.6 -45,0c-13.55,-1.6 -32.45,1.45 -45,0c-12.55,-1.45 -33.28,-1.71 -33,12c0.29,13.7 10.49,19.26 14.75,30.25c4.26,11 11.18,17.84 15.95,28.05c4.77,10.21999 11.23,18.75999 16.38,28.62c5.15,9.85001 11,19.07001 16.15,28.85001c5.14999,9.78 11.3,18.84001 16.46999,28.53c5.16,9.70001 11.02,19.06999 16.38,28.62001c5.35001,9.56 10.22,18.83 15.67001,28.33c5.43999,9.50998 10.99,19.06999 16.32999,28.67c5.33,9.60999 10.56,19.37997 16.14999,28.84998c5.59001,9.47 10.61,19.46002 16,29c5.39,9.54001 10.8,18.37006 16,28c5.2,9.63 11.02,19 16.46001,28.54001c5.45,9.53 10.17999,19.63 16,29c5.83,9.36005 9.77,19.84003 16.00999,28.98999c6.23,9.16 7.78,20.51001 18.61,26.39001c10.82002,5.88998 21.70998,-5.91 25.92,-15.45999c4.20999,-9.55002 11.45999,-19.06 16.47,-28.53c5,-9.48001 10.92999,-19.18002 16.37997,-28.62003c5.46002,-9.43997 10.66,-19.31 16.15002,-28.84998c5.48999,-9.54001 10.56998,-18.23001 16.01999,-27.98001c5.44,-9.76001 11.13,-18.31 16.5,-28.5c5.35999,-10.20001 11,-17.59 16.48001,-28.51999c5.47998,-10.93002 10.62,-16.06 16.45999,-28.54001c5.85001,-12.47 -11.95001,-18.67 -23.69,-18.69c-11.73999,-0.02 -29.23999,-1.91 -40.92999,1.07001c-11.67999,2.98 -22.80002,5.81 -32.99002,12.00999c-10.17999,6.2 -16.88998,11 -24.82999,20.17c-7.95001,9.17001 -12.81,14.67999 -18.48,26.51999c-5.67,11.84 -16.08,1.49002 -20.85002,-8.69c-4.75998,-10.18997 -9.73,-19.22 -15.62,-29.37999c-5.88,-10.17 2.62999,-20.42999 8.78,-29.62c6.16,-9.19 13.50999,-21.23 8.89999,-32.06c-4.62,-10.82001 -9.39999,-19.99002 -15.20999,-29.79001c-5.81,-9.8 -10.63,-18.28 -16,-28c-5.37001,-9.71999 -11.08,-18.96999 -16.46001,-28.53999c-5.39,-9.56001 -10.5,-19.64 -16.06,-28.94c-5.55,-9.31 -11.06,-19.46 -16.33,-28.67c-5.27,-9.21 -9.50999,-20.72 -20.92001,-23.08l0.00005,0z" id="svg_6"/>
  </g>
  <g fill="None" fill-opacity="0" stroke="#268E8F" stroke-width="0.3" id="svg_7">
   <path d="m391,128c-10.79999,-1.31 -25.06,0.06 -34.98999,2.00999c-9.94,1.94 -19.94,4.35001 -28.78,8.22c-8.84,3.87001 -16.40002,7.46001 -23.98001,13.01999c-7.57999,5.56001 -12.95999,10.28999 -19.5,17.5c-6.53,7.22 -10.79999,12.00999 -15.98001,21.02c-5.16998,9.00999 -7.82999,13.78 -11.84,25.15999c-4.01999,11.37001 6.62,6.87001 14.84,0.84001c8.22,-6.03 16.57001,-7.65001 26.21002,-10.79001c9.62997,-3.14999 21.29999,-4.61 32.01999,-4.98c10.72,-0.37001 24.97,-0.28 34.98999,2.00998c10.02002,2.29001 20.14001,4.09001 29.33002,7.67001c9.19,3.57999 17.12,6.96001 25.60001,11.40001c8.48999,4.43999 15.57999,8.61 23.84998,13.14998c8.28,4.54001 14.57001,8.46002 23.15002,12.85002c8.59,4.37999 16.51999,7.59 25.85999,11.13998c9.32999,3.56 19.87003,5.20999 30.22,6.78c10.34003,1.57001 23.84003,0.42001 34,-1c10.15002,-1.42999 20.02002,-4.28 28.97998,-8.01999c8.95001,-3.75 17,-6.98 24.77002,-12.23c7.78003,-5.24002 13.34003,-9.42 20,-16c6.65997,-6.58 12.03998,-11.75999 18,-19c5.95001,-7.24002 8.79999,-15.14999 13.47998,-23.52c4.67004,-8.37 7.82001,-22.55 -2.52997,-15.53c-10.35999,7.01001 -12.98999,9.23 -22.66998,14.32001c-9.69,5.09999 -16.31006,7.28999 -26.36005,10.64999c-10.04999,3.36 -21.88995,3.85001 -32.66998,4.33c-10.78003,0.48 -22.42999,-1.17999 -31.98999,-4.00999c-9.56,-2.82001 -19.16003,-4.98001 -27.76001,-9.24001c-8.60999,-4.25 -15.97,-8.19 -24,-13c-8.04001,-4.8 -14.39999,-10.02 -22.54999,-14.45001c-8.16,-4.42 -15.52002,-8.95 -24.01001,-12.99001c-8.48001,-4.05 -17.45999,-7.89 -26.62,-10.37999c-9.14999,-2.5 -19.86002,-5.81999 -29.07001,-6.93l0,0.00002z" id="svg_8"/>
  </g>
  <g fill="None" fill-opacity="0" stroke="#268E8F" stroke-width="0.3" id="svg_9">
   <path d="m605,291c-7.57001,2.48001 -12.16998,7.89001 -19.29999,11.69c-7.14001,3.81 -13.77002,6.67999 -21.63,9.38c-7.85999,2.70999 -17.10999,4.45999 -25.85004,5.14999c-8.73999,0.69 -18.70996,0.56 -27.20996,-1.23001c-8.5,-1.78998 -17,-3.32999 -24.93002,-6.06998c-7.93997,-2.73001 -13.82999,-6.38 -21.39999,-9.60004c-7.57999,-3.22 -13.66,-5.78 -21.60999,-8.38998c-7.94,-2.62003 -17.27002,-4.82004 -26.07001,-4.92999c-8.79999,-0.10999 -19.17001,-1.32999 -25.75,5.25c-6.59,6.57999 -6.79001,10.07001 -11.94,18.06c-5.16,7.98001 -4.35001,11.29999 -10.38998,20.61002c-6.03,9.31998 1.10999,15.51999 12.07999,13.07999c10.97,-2.44 18.70999,2.10001 27.92999,3.07001c9.21002,0.97998 13.87,5.50998 22,8c8.12,2.5 14.02002,5.94998 21.85001,9.14999c7.82999,3.20001 15.54999,5.14999 24,7c8.45001,1.85999 19.20999,1.82999 28.22,1.78c9.01001,-0.04999 17.96997,-2.70999 25.97998,-5.01999c8.01001,-2.32001 14.44,-5.82001 21.33002,-9.67001c6.88,-3.85999 12.07001,-7.12 17.94,-12.06c5.87,-4.95001 10.88,-9.51001 15.5,-15.5c4.62,-5.98999 9.67999,-11.32999 12.95001,-18.04999c3.26996,-6.72 8.62,-14.07001 6.29999,-21.70001z" id="svg_10"/>
  </g>
  <g fill="#268E8F" fill-opacity="0" stroke="None" id="svg_11">
   <path d="m0,473l728,0l0,-473l-728,0l0,473m316,-371c-2.42999,-7.65 2.10999,-15.85 5.31,-22.69c3.19,-6.85 7.34,-13.3 11.61002,-19.39c4.26999,-6.1 8.88998,-11.4 14.32999,-16.67c5.44,-5.27 9.79001,-9.63 16,-14c6.20999,-4.37 12.29001,-8.1 19.45001,-11.56c7.14999,-3.45 14.84,-5.91 22.97,-8.02c8.12997,-2.1 18.29999,-3.86 27.32999,-3.67c9.03,0.19 20.39001,-0.28 29,1c8.60999,1.28 16.31,4.38 24.22,6.78c7.92001,2.39 15.07999,5.22 22.03,8.97c6.94,3.76 13.27002,5.94 19.83002,10.17c6.54999,4.24 13.03998,7.18 19.62,11.38c6.57001,4.21 12.89001,7.39 19.98999,11.01c7.10999,3.61 13.77002,6.57 21.38,9.62c7.62,3.04 14.79999,4.68 23.14996,6.85c8.35004,2.16 19.61005,2.52 28.78003,2.22c9.16998,-0.3 19.65002,-0.15 28.01001,-2.99c8.35999,-2.85 14.01001,-3.54 21.69,-8.32c7.66998,-4.77 12.08002,-4.36 19.52997,-11.46c7.45001,-7.1 13.82001,-5.15 9.84003,4.84c-3.97003,10 -5.26001,13.33 -9.82001,21.18c-4.57001,7.84 -7.02002,11.42 -12,18c-4.98999,6.57 -9.46002,10.34 -15.5,15.5c-6.03003,5.17 -10.78998,9.24 -17.5,13.5c-6.70001,4.27 -12.81,6.13 -20.27002,9.73c-7.46997,3.59001 -15.53998,5.08 -23.97998,7.02c-8.44,1.94 -19.84003,2.10001 -29,2c-9.15997,-0.10001 -18.87,-1.58 -27.07001,-3.92999c-8.21002,-2.34001 -15.57001,-3.71001 -23,-7c-7.44,-3.29001 -14.33002,-5.81001 -21.15997,-9.84c-6.83002,-4.03001 -13.12997,-7.23 -19.85001,-11.15c-6.72,-3.92 -12.33002,-7 -19.15002,-10.85c-6.81998,-3.85001 -13.59,-6.51 -20.84998,-10.15c-7.25,-3.65 -15.02002,-5.22 -22.94,-8.06001c-7.93002,-2.82999 -17.27002,-3.89999 -25.98001,-5.02c-8.70999,-1.12 -19.29001,-1.18 -28,0c-8.72,1.18 -18.26999,2.02 -26.22,4.78c-7.95999,2.76 -14.62997,5.4 -21.85999,9.14c-7.22,3.75 -12.35001,8.53 -19.92001,11.08m-187.99998,-78c11.40999,2.36 15.64998,13.87 20.92,23.08c5.26999,9.21 10.78,19.36 16.33,28.67c5.56,9.3 10.67,19.38 16.06,28.94c5.37999,9.57 11.09,18.82 16.46001,28.53999c5.37,9.72 10.19,18.2 16,28c5.81,9.79999 10.59,18.97 15.20999,29.79001c4.61,10.83 -2.73999,22.87 -8.89999,32.06c-6.15001,9.19 -14.66,19.45 -8.78,29.62c5.89,10.15999 10.86,19.19002 15.62,29.37999c4.77,10.18002 15.18002,20.53 20.85002,8.69c5.67,-11.84 10.52998,-17.34998 18.48,-26.51999c7.94,-9.17 14.64999,-13.97 24.82999,-20.17c10.19,-6.2 21.31003,-9.03 32.99002,-12.00999c11.69,-2.98001 29.19,-1.09001 40.92999,-1.07001c11.73999,0.02 29.54001,6.22 23.69,18.69c-5.84,12.48001 -10.98001,17.60999 -16.45999,28.54001c-5.48001,10.92999 -11.12003,18.31998 -16.48001,28.51999c-5.37,10.19 -11.06,18.73999 -16.5,28.5c-5.45001,9.75 -10.53,18.44 -16.01999,27.98001c-5.49002,9.53998 -10.69,19.41 -16.15002,28.84998c-5.44998,9.44 -11.37997,19.14001 -16.37997,28.62003c-5.01001,9.47 -12.26001,18.97998 -16.47,28.53c-4.21002,9.54999 -15.10001,21.34998 -25.92,15.45999c-10.83,-5.88 -12.38,-17.23001 -18.61,-26.39001c-6.23999,-9.14996 -10.17999,-19.62994 -16.00999,-28.98999c-5.82001,-9.37 -10.55,-19.47 -16,-29c-5.44,-9.54001 -11.26001,-18.90997 -16.46001,-28.54001c-5.2,-9.62994 -10.61,-18.45999 -16,-28c-5.39,-9.53998 -10.40999,-19.53 -16,-29c-5.59,-9.47 -10.81999,-19.23999 -16.14999,-28.84998c-5.34,-9.60001 -10.89,-19.16002 -16.32999,-28.67c-5.45,-9.5 -10.32,-18.77 -15.67001,-28.33c-5.36,-9.55 -11.22,-18.92 -16.38,-28.62001c-5.17,-9.68999 -11.32,-18.75 -16.46999,-28.53c-5.15,-9.78 -11,-19 -16.15,-28.85001c-5.15,-9.86 -11.61,-18.4 -16.38,-28.62c-4.77,-10.21001 -11.69,-17.05 -15.95,-28.05c-4.26,-10.99 -14.46,-16.55 -14.75,-30.25c-0.28,-13.71 20.45,-13.45 33,-12c12.55,1.45 31.45,-1.6 45,0c13.55,1.6 31.42,-2.81 45,0m263,104c9.20999,1.11 19.92001,4.42999 29.07001,6.92999c9.16,2.49001 18.13998,6.33 26.62,10.38c8.48999,4.04001 15.85001,8.57001 24.01001,12.99001c8.14999,4.42999 14.50998,9.64999 22.54999,14.45c8.03,4.81 15.39001,8.75 24,13c8.59998,4.25999 18.20001,6.42 27.76001,9.24001c9.56,2.83 21.20996,4.48999 31.98999,4.00999c10.78003,-0.48 22.62,-0.97 32.66998,-4.33c10.04999,-3.36 16.67004,-5.55 26.36005,-10.64999c9.67999,-5.09001 12.31,-7.31 22.66998,-14.32001c10.34998,-7.02 7.20001,7.16 2.52997,15.53c-4.67999,8.37001 -7.52997,16.28 -13.47998,23.52c-5.96002,7.24001 -11.34003,12.42 -18,19c-6.65997,6.58 -12.21997,10.75999 -20,16c-7.77002,5.25 -15.82001,8.48 -24.77002,12.23c-8.95996,3.74001 -18.82996,6.59001 -28.97998,8.02c-10.15997,1.42001 -23.65997,2.57001 -34,1c-10.35001,-1.57001 -20.89001,-3.22 -30.22,-6.78c-9.34,-3.55 -17.26999,-6.75999 -25.85999,-11.14c-8.58002,-4.39 -14.87003,-8.31 -23.15002,-12.85001c-8.26999,-4.53999 -15.35999,-8.70999 -23.84998,-13.14999c-8.48001,-4.44 -16.41,-7.82001 -25.60001,-11.40001c-9.19,-3.57999 -19.31,-5.37999 -29.33002,-7.67c-10.01999,-2.28999 -24.26999,-2.37999 -34.98999,-2.00999c-10.72,0.37 -22.39001,1.83 -32.01999,4.98c-9.64001,3.14 -17.99002,4.76001 -26.21002,10.79001c-8.22,6.03 -18.85999,10.53 -14.84,-0.84001c4.01001,-11.37999 6.67001,-16.14998 11.84,-25.15999c5.18002,-9.01001 9.45001,-13.79999 15.98001,-21.01999c6.54001,-7.21002 11.92001,-11.94 19.5,-17.5c7.57999,-5.56001 15.14001,-9.14999 23.98001,-13.02c8.84,-3.87 18.84,-6.28 28.78,-8.22c9.92999,-1.95 24.19,-3.31999 34.98999,-2.00999m214,163.00002c2.32001,7.62997 -3.03003,14.98001 -6.29999,21.70001c-3.27002,6.72 -8.33002,12.06 -12.95001,18.04999c-4.62,5.98999 -9.63,10.54999 -15.5,15.5c-5.87,4.94 -11.06,8.20001 -17.94,12.06c-6.89001,3.85001 -13.32001,7.35001 -21.33002,9.67001c-8.01001,2.31 -16.96997,4.97 -25.97998,5.01999c-9.01001,0.04999 -19.76999,0.07999 -28.22,-1.78c-8.45001,-1.85004 -16.17001,-3.79999 -24,-7c-7.82999,-3.20001 -13.73001,-6.64999 -21.85001,-9.14999c-8.13,-2.49002 -12.78998,-7.02002 -22,-8c-9.22,-0.97 -16.95999,-5.51001 -27.92999,-3.07001c-10.97,2.44 -18.10999,-3.76001 -12.07999,-13.07999c6.03998,-9.31006 5.22998,-12.63 10.38998,-20.61005c5.14999,-7.98999 5.35001,-11.48001 11.94,-18.06c6.57999,-6.57999 16.95001,-5.35999 25.75,-5.25c8.79999,0.10999 18.12997,2.31 26.07001,4.92999c7.94998,2.61002 14.03,5.17001 21.60999,8.39001c7.57001,3.22 13.46002,6.87 21.39999,9.60001c7.93002,2.73999 16.43002,4.28 24.93002,6.06998c8.5,1.79001 18.46997,1.92001 27.20996,1.23001c8.74005,-0.69 17.99005,-2.44 25.85004,-5.14999c7.85999,-2.70001 14.48999,-5.57001 21.63,-9.37997c7.13,-3.79999 11.72998,-9.20999 19.29999,-11.69z" id="svg_12"/>
  </g>
  <g fill="#268E8F" stroke="None" id="svg_13">
   <path d="m316,102c7.57001,-2.55 12.70001,-7.33 19.92001,-11.08c7.22998,-3.74 13.89999,-6.38 21.85999,-9.14c7.95001,-2.76 17.5,-3.6 26.22,-4.78c8.70999,-1.18 19.29001,-1.12 28,0c8.70999,1.12 18.04999,2.19 25.98001,5.02c7.91998,2.84 15.69,4.41 22.94,8.06001c7.25998,3.64 14.03,6.3 20.84998,10.15c6.82001,3.85 12.43002,6.93 19.15002,10.85c6.72,3.92 13.01999,7.12 19.85001,11.15c6.82996,4.03 13.71997,6.55 21.15997,9.84c7.42999,3.28999 14.78998,4.65999 23,7c8.20001,2.34999 17.91003,3.82999 27.07001,3.92999c9.15997,0.10001 20.56,-0.06 29,-2c8.44,-1.94 16.51001,-3.42999 23.97998,-7.02c7.46002,-3.59999 13.57001,-5.45999 20.27002,-9.73c6.71002,-4.26 11.46997,-8.33 17.5,-13.5c6.03998,-5.16 10.51001,-8.93 15.5,-15.5c4.97998,-6.58 7.42999,-10.16 12,-18c4.56,-7.85 5.84998,-11.18 9.82001,-21.18c3.97998,-9.99 -2.39001,-11.94 -9.84003,-4.84c-7.44995,7.1 -11.85999,6.69 -19.52997,11.46c-7.67999,4.78 -13.33002,5.47001 -21.69,8.32c-8.35999,2.84 -18.84003,2.68999 -28.01001,2.99c-9.16998,0.3 -20.42999,-0.06 -28.78003,-2.22c-8.34998,-2.17 -15.52997,-3.81 -23.14996,-6.85c-7.60999,-3.05 -14.27002,-6.01 -21.38,-9.62c-7.09998,-3.62 -13.41998,-6.8 -19.98999,-11.01c-6.58002,-4.2 -13.07001,-7.14 -19.62,-11.38c-6.56,-4.23 -12.89001,-6.41 -19.83002,-10.17c-6.95001,-3.75 -14.10999,-6.58 -22.03,-8.97c-7.91,-2.4 -15.61002,-5.5 -24.22,-6.78c-8.60999,-1.28 -19.97,-0.81 -29,-1c-9.03,-0.19 -19.20001,1.57 -27.32999,3.67c-8.13,2.11 -15.82001,4.57 -22.97,8.02c-7.16,3.46 -13.24002,7.19 -19.45001,11.56c-6.20999,4.37 -10.56,8.73 -16,14c-5.44,5.27 -10.06,10.57 -14.32999,16.67c-4.27002,6.09 -8.42001,12.54 -11.61002,19.39c-3.20001,6.84 -7.73999,15.04 -5.31,22.69z" id="svg_14" fill="#3dd68c"/>
  </g>
  <g fill="#268E8F" stroke="None" id="svg_15">
   <path d="m128,24c-13.58,-2.81 -31.45,1.6 -45,0c-13.55,-1.6 -32.45,1.45 -45,0c-12.55,-1.45 -33.28,-1.71 -33,12c0.29,13.7 10.49,19.26 14.75,30.25c4.26,11 11.18,17.84 15.95,28.05c4.77,10.21999 11.23,18.75999 16.38,28.62c5.15,9.85001 11,19.07001 16.15,28.85001c5.14999,9.78 11.3,18.84001 16.46999,28.53c5.16,9.70001 11.02,19.06999 16.38,28.62001c5.35001,9.56 10.22,18.83 15.67001,28.33c5.43999,9.50998 10.99,19.06999 16.32999,28.67c5.33,9.60999 10.56,19.37997 16.14999,28.84998c5.59001,9.47 10.61,19.46002 16,29c5.39,9.54001 10.8,18.37006 16,28c5.2,9.63 11.02,19 16.46001,28.54001c5.45,9.53 10.17999,19.63 16,29c5.83,9.36005 9.77,19.84003 16.00999,28.98999c6.23,9.16 7.78,20.51001 18.61,26.39001c10.82002,5.88998 21.70998,-5.91 25.92,-15.45999c4.20999,-9.55002 11.45999,-19.06 16.47,-28.53c5,-9.48001 10.92999,-19.18002 16.37997,-28.62003c5.46002,-9.43997 10.66,-19.31 16.15002,-28.84998c5.48999,-9.54001 10.56998,-18.23001 16.01999,-27.98001c5.44,-9.76001 11.13,-18.31 16.5,-28.5c5.35999,-10.20001 11,-17.59 16.48001,-28.51999c5.47998,-10.93002 10.62,-16.06 16.45999,-28.54001c5.85001,-12.47 -11.95001,-18.67 -23.69,-18.69c-11.73999,-0.02 -29.23999,-1.91 -40.92999,1.07001c-11.67999,2.98 -22.80002,5.81 -32.99002,12.00999c-10.17999,6.2 -16.88998,11 -24.82999,20.17c-7.95001,9.17001 -12.81,14.67999 -18.48,26.51999c-5.67,11.84 -16.08,1.49002 -20.85002,-8.69c-4.75998,-10.18997 -9.73,-19.22 -15.62,-29.37999c-5.88,-10.17 2.62999,-20.42999 8.78,-29.62c6.16,-9.19 13.50999,-21.23 8.89999,-32.06c-4.62,-10.82001 -9.39999,-19.99002 -15.20999,-29.79001c-5.81,-9.8 -10.63,-18.28 -16,-28c-5.37001,-9.71999 -11.08,-18.96999 -16.46001,-28.53999c-5.39,-9.56001 -10.5,-19.64 -16.06,-28.94c-5.55,-9.31 -11.06,-19.46 -16.33,-28.67c-5.27,-9.21 -9.50999,-20.72 -20.92001,-23.08l0.00005,0z" id="svg_16" fill="#3dd68c"/>
  </g>
  <g fill="#268E8F" stroke="None" id="svg_17">
   <path d="m391,128c-10.79999,-1.31 -25.06,0.06 -34.98999,2.00999c-9.94,1.94 -19.94,4.35001 -28.78,8.22c-8.84,3.87001 -16.40002,7.46001 -23.98001,13.01999c-7.57999,5.56001 -12.95999,10.28999 -19.5,17.5c-6.53,7.22 -10.79999,12.00999 -15.98001,21.02c-5.16998,9.00999 -7.82999,13.78 -11.84,25.15999c-4.01999,11.37001 6.62,6.87001 14.84,0.84001c8.22,-6.03 16.57001,-7.65001 26.21002,-10.79001c9.62997,-3.14999 21.29999,-4.61 32.01999,-4.98c10.72,-0.37001 24.97,-0.28 34.98999,2.00998c10.02002,2.29001 20.14001,4.09001 29.33002,7.67001c9.19,3.57999 17.12,6.96001 25.60001,11.40001c8.48999,4.43999 15.57999,8.61 23.84998,13.14998c8.28,4.54001 14.57001,8.46002 23.15002,12.85002c8.59,4.37999 16.51999,7.59 25.85999,11.13998c9.32999,3.56 19.87003,5.20999 30.22,6.78c10.34003,1.57001 23.84003,0.42001 34,-1c10.15002,-1.42999 20.02002,-4.28 28.97998,-8.01999c8.95001,-3.75 17,-6.98 24.77002,-12.23c7.78003,-5.24002 13.34003,-9.42 20,-16c6.65997,-6.58 12.03998,-11.75999 18,-19c5.95001,-7.24002 8.79999,-15.14999 13.47998,-23.52c4.67004,-8.37 7.82001,-22.55 -2.52997,-15.53c-10.35999,7.01001 -12.98999,9.23 -22.66998,14.32001c-9.69,5.09999 -16.31006,7.28999 -26.36005,10.64999c-10.04999,3.36 -21.88995,3.85001 -32.66998,4.33c-10.78003,0.48 -22.42999,-1.17999 -31.98999,-4.00999c-9.56,-2.82001 -19.16003,-4.98001 -27.76001,-9.24001c-8.60999,-4.25 -15.97,-8.19 -24,-13c-8.04001,-4.8 -14.39999,-10.02 -22.54999,-14.45001c-8.16,-4.42 -15.52002,-8.95 -24.01001,-12.99001c-8.48001,-4.05 -17.45999,-7.89 -26.62,-10.37999c-9.14999,-2.5 -19.86002,-5.81999 -29.07001,-6.93l0,0.00002z" id="svg_18" fill="#3dd68c"/>
  </g>
  <g fill="#268E8F" stroke="None" id="svg_19">
   <path d="m605,291c-7.57001,2.48001 -12.16998,7.89001 -19.29999,11.69c-7.14001,3.81 -13.77002,6.67999 -21.63,9.38c-7.85999,2.70999 -17.10999,4.45999 -25.85004,5.14999c-8.73999,0.69 -18.70996,0.56 -27.20996,-1.23001c-8.5,-1.78998 -17,-3.32999 -24.93002,-6.06998c-7.93997,-2.73001 -13.82999,-6.38 -21.39999,-9.60004c-7.57999,-3.22 -13.66,-5.78 -21.60999,-8.38998c-7.94,-2.62003 -17.27002,-4.82004 -26.07001,-4.92999c-8.79999,-0.10999 -19.17001,-1.32999 -25.75,5.25c-6.59,6.57999 -6.79001,10.07001 -11.94,18.06c-5.16,7.98001 -4.35001,11.29999 -10.38998,20.61002c-6.03,9.31998 1.10999,15.51999 12.07999,13.07999c10.97,-2.44 18.70999,2.10001 27.92999,3.07001c9.21002,0.97998 13.87,5.50998 22,8c8.12,2.5 14.02002,5.94998 21.85001,9.14999c7.82999,3.20001 15.54999,5.14999 24,7c8.45001,1.85999 19.20999,1.82999 28.22,1.78c9.01001,-0.04999 17.96997,-2.70999 25.97998,-5.01999c8.01001,-2.32001 14.44,-5.82001 21.33002,-9.67001c6.88,-3.85999 12.07001,-7.12 17.94,-12.06c5.87,-4.95001 10.88,-9.51001 15.5,-15.5c4.62,-5.98999 9.67999,-11.32999 12.95001,-18.04999c3.26996,-6.72 8.62,-14.07001 6.29999,-21.70001z" id="svg_20" fill="#3dd68c"/>
  </g>
 </g>

</svg>