<svg width="270" height="125" xmlns="http://www.w3.org/2000/svg" xmlns:xlink="http://www.w3.org/1999/xlink" xml:space="preserve" version="1.1">
 <g>
  <title>Layer 1</title>
  <g id="Base">
   <rect fill="#444444" height="125" width="270" id="XMLID_3_"/>
  </g>
  <g id="Background">
   <defs>
    <rect height="125" width="270" id="XMLID_4_"/>
   </defs>
   <clipPath id="XMLID_00000082367762562543076410000009004718785178270142_">
    <use id="svg_1" xlink:href="#XMLID_4_"/>
   </clipPath>
   <g clip-path="url(#XMLID_00000082367762562543076410000009004718785178270142_)" id="XMLID_279_">
    <path fill="#B3B3B3" d="m68.528,5.748l4.472,-1.506l-0.239,-3.43l-4.635,-0.872c-0.19,-0.936 -0.438,-1.868 -0.752,-2.791l3.629,-3.108l-1.511,-3.087l-4.673,0.969c-0.592,-0.896 -1.237,-1.737 -1.934,-2.523l2.099,-4.236l-2.589,-2.256l-3.895,2.671c-0.802,-0.534 -1.635,-1.013 -2.495,-1.439l0.351,-4.72l-3.247,-1.113l-2.603,3.948c-1.034,-0.212 -2.085,-0.351 -3.143,-0.414l-1.505,-4.484l-3.422,0.239l-0.869,4.649c-0.933,0.188 -1.862,0.439 -2.783,0.753l-3.101,-3.636l-3.08,1.512l0.967,4.687c-0.893,0.591 -1.734,1.24 -2.519,1.937l-4.223,-2.105l-2.252,2.596l2.667,3.902c-0.532,0.807 -1.012,1.641 -1.437,2.503l-4.706,-0.354l-1.11,3.252l3.939,2.612c-0.21,1.036 -0.351,2.09 -0.415,3.15l-4.472,1.508l0.239,3.431l4.636,0.87c0.187,0.937 0.437,1.869 0.752,2.792l-3.628,3.108l1.508,3.088l4.675,-0.972c0.59,0.896 1.236,1.738 1.934,2.525l-2.098,4.234l2.587,2.257l3.894,-2.671c0.803,0.534 1.638,1.012 2.497,1.439l-0.351,4.719l3.243,1.113l2.607,-3.949c1.034,0.213 2.084,0.352 3.142,0.417l1.504,4.483l3.422,-0.239l0.869,-4.648c0.935,-0.19 1.864,-0.44 2.784,-0.753l3.101,3.636l3.081,-1.514l-0.968,-4.684c0.894,-0.592 1.734,-1.24 2.517,-1.938l4.225,2.104l2.25,-2.595l-2.66499,-3.905c0.531,-0.805 1.01299,-1.639 1.434,-2.503l4.709,0.354l1.112,-3.252l-3.941,-2.609c0.212,-1.037 0.35,-2.088 0.415,-3.152m-22.507,6.923c-4.556,0 -8.249,-3.702 -8.249,-8.269c0,-4.566 3.694,-8.268 8.249,-8.268c4.554,0 8.248,3.702 8.248,8.268c0,4.567 -3.694,8.269 -8.248,8.269" id="XMLID_280_"/>
   </g>
   <path fill="#B3B3B3" clip-path="url(#XMLID_00000082367762562543076410000009004718785178270142_)" d="m37.635,49.094l4.504,-1.407l-0.163,-3.435l-4.615,-0.973c-0.169,-0.94 -0.396,-1.877 -0.69,-2.807l3.697,-3.028l-1.443,-3.119l-4.693,0.866c-0.572,-0.909 -1.199,-1.764 -1.877,-2.565l2.191,-4.188l-2.539,-2.312l-3.952,2.585c-0.789,-0.551 -1.613,-1.049 -2.462,-1.493l0.455,-4.711l-3.222,-1.185l-2.689,3.89c-1.029,-0.234 -2.076,-0.397 -3.133,-0.484l-1.406,-4.516l-3.426,0.163l-0.972,4.626c-0.937,0.168 -1.871,0.398 -2.799,0.692l-3.02,-3.704l-3.113,1.444l0.864,4.707c-0.906,0.571 -1.761,1.201 -2.561,1.881l-4.176,-2.197l-2.309,2.546l2.581,3.96c-0.55,0.795 -1.048,1.618 -1.492,2.471l-4.7,-0.457l-1.181,3.227l3.881,2.699c-0.232,1.031 -0.397,2.082 -0.484,3.141l-4.504,1.41l0.163,3.435l4.616,0.972c0.166,0.94 0.396,1.878 0.69,2.808l-3.696,3.027l1.44,3.121l4.695,-0.868c0.57,0.909 1.198,1.765 1.878,2.567l-2.191,4.187l2.536,2.313l3.952,-2.58501c0.791,0.551 1.616,1.048 2.464,1.494l-0.454,4.71l3.217,1.184l2.694,-3.89c1.029,0.236 2.075,0.398 3.132,0.486l1.405,4.515l3.426,-0.16399l0.971,-4.62801c0.939,-0.169 1.873,-0.39899 2.8,-0.69099l3.021,3.70399l3.113,-1.446l-0.865,-4.705c0.907,-0.572 1.761,-1.202 2.56,-1.882l4.178,2.197l2.306,-2.545l-2.578,-3.962c0.549,-0.792 1.048,-1.617 1.489,-2.471l4.701,0.458l1.183,-3.227l-3.881,-2.699c0.234,-1.032 0.395,-2.08 0.483,-3.142zm-10.035,-2.588l-4.695,0c-0.152,-1.584 -0.781,-3.032 -1.741,-4.196l3.322,-3.322c1.797,2.025 2.944,4.64 3.114,7.518zm-4.171,-8.575l-3.322,3.322c-1.164,-0.961 -2.611,-1.589 -4.196,-1.741l0,-4.695c2.878,0.17 5.493,1.317 7.518,3.114zm-9.013,-3.114l0,4.695c-1.584,0.152 -3.032,0.78 -4.196,1.741l-3.322,-3.322c2.026,-1.797 4.64,-2.944 7.518,-3.114zm-8.575,4.171l3.322,3.322c-0.961,1.164 -1.589,2.611 -1.741,4.196l-4.695,0c0.17,-2.878 1.317,-5.493 3.114,-7.518zm-3.114,9.013l4.695,0c0.152,1.585 0.781,3.032 1.741,4.196l-3.322,3.322c-1.797,-2.026 -2.944,-4.64 -3.114,-7.518zm11.689,11.689c-2.878,-0.17 -5.492,-1.317 -7.518,-3.114l3.322,-3.322c1.164,0.961 2.611,1.59 4.196,1.741l0,4.695zm-5.535,-12.437c0,-3.464 2.819,-6.283 6.283,-6.283c3.465,0 6.283,2.819 6.283,6.283c0,3.465 -2.819,6.283 -6.283,6.283c-3.465,0 -6.283,-2.818 -6.283,-6.283zm7.03,12.437l0,-4.695c1.585,-0.152 3.032,-0.781 4.196,-1.741l3.322,3.322c-2.025,1.797 -4.64,2.944 -7.518,3.114zm8.575,-4.171l-3.322,-3.322c0.961,-1.164 1.59,-2.611 1.741,-4.196l4.695,0c-0.17,2.878 -1.317,5.492 -3.114,7.518z" id="XMLID_22127_"/>
   <path fill="#B3B3B3" clip-path="url(#XMLID_00000082367762562543076410000009004718785178270142_)" d="m13.005,6.856l2.119,-0.662l-0.077,-1.616l-2.172,-0.458c-0.079,-0.442 -0.187,-0.883 -0.325,-1.321l1.739,-1.425l-0.679,-1.468l-2.208,0.407c-0.269,-0.427 -0.564,-0.83 -0.884,-1.207l1.031,-1.971l-1.195,-1.088l-1.86,1.216c-0.369,-0.258 -0.757,-0.492 -1.156,-0.701l0.214,-2.217l-1.516,-0.557l-1.265,1.83c-0.484,-0.11 -0.977,-0.187 -1.474,-0.228l-0.662,-2.125l-1.613,0.077l-0.456,2.178c-0.441,0.079 -0.88,0.187 -1.317,0.325l-1.421,-1.743l-1.465,0.679l0.407,2.215c-0.426,0.269 -0.829,0.565 -1.205,0.885l-1.965,-1.032l-1.086,1.198l1.214,1.863c-0.259,0.374 -0.493,0.761 -0.702,1.163l-2.212,-0.215l-0.556,1.518l1.826,1.27c-0.109,0.485 -0.187,0.979 -0.228,1.478l-2.119,0.663l0.077,1.616l2.172,0.457c0.078,0.443 0.186,0.884 0.325,1.321l-1.739,1.424l0.678,1.469l2.209,-0.409c0.268,0.428 0.564,0.83 0.884,1.208l-1.031,1.97l1.194,1.088l1.86,-1.216c0.372,0.26 0.76,0.493 1.16,0.703l-0.214,2.217l1.514,0.557l1.267,-1.831c0.484,0.111 0.977,0.187 1.474,0.229l0.661,2.125l1.612,-0.077l0.457,-2.177c0.442,-0.08 0.882,-0.188 1.317,-0.325l1.421,1.743l1.465,-0.681l-0.407,-2.214c0.427,-0.269 0.829,-0.565 1.204,-0.886l1.966,1.034l1.085,-1.198l-1.213,-1.864c0.258,-0.373 0.493,-0.761 0.7,-1.163l2.212,0.215l0.557,-1.518l-1.826,-1.27c0.109,-0.485 0.185,-0.978 0.227,-1.478z" id="XMLID_22191_"/>
   <path fill="#B3B3B3" clip-path="url(#XMLID_00000082367762562543076410000009004718785178270142_)" d="m69.005,47.856l2.119,-0.662l-0.077,-1.616l-2.172,-0.458c-0.079,-0.442 -0.187,-0.883 -0.325,-1.321l1.739,-1.425l-0.679,-1.468l-2.208,0.407c-0.269,-0.427 -0.564,-0.83 -0.883,-1.207l1.03101,-1.971l-1.195,-1.088l-1.86,1.216c-0.371,-0.26 -0.759,-0.493 -1.159,-0.703l0.214,-2.217l-1.516,-0.557l-1.265,1.83c-0.484,-0.11 -0.977,-0.187 -1.474,-0.228l-0.662,-2.125l-1.612,0.077l-0.457,2.178c-0.441,0.079 -0.881,0.187 -1.317,0.326l-1.421,-1.743l-1.465,0.679l0.406,2.215c-0.426,0.269 -0.829,0.565 -1.205,0.885l-1.962,-1.031l-1.086,1.198l1.214,1.863c-0.259,0.374 -0.493,0.761 -0.702,1.163l-2.212,-0.215l-0.556,1.518l1.826,1.27c-0.109,0.485 -0.187,0.979 -0.228,1.478l-2.119,0.663l0.077,1.616l2.172,0.457c0.078,0.443 0.186,0.884 0.325,1.321l-1.739,1.424l0.678,1.468l2.209,-0.409c0.268,0.428 0.564,0.83 0.884,1.208l-1.031,1.97l1.194,1.088l1.859,-1.216c0.372,0.259 0.76,0.493 1.16,0.703l-0.214,2.216l1.514,0.557l1.267,-1.831c0.484,0.111 0.977,0.187 1.474,0.229l0.661,2.125l1.612,-0.077l0.457,-2.177c0.442,-0.08 0.882,-0.188 1.317,-0.325l1.421,1.743l1.465,-0.681l-0.407,-2.214c0.42699,-0.269 0.82899,-0.565 1.20399,-0.886l1.966,1.034l1.085,-1.197l-1.213,-1.864c0.258,-0.373 0.493,-0.761 0.701,-1.163l2.212,0.215l0.557,-1.519l-1.826,-1.27c0.109,-0.483 0.185,-0.976 0.227,-1.476z" id="XMLID_6_"/>
   <g clip-path="url(#XMLID_00000082367762562543076410000009004718785178270142_)" opacity="0.46" id="XMLID_12_">
    <g id="XMLID_25_">
     <path fill="#B3B3B3" d="m304.52802,5.748l4.47198,-1.506l-0.23901,-3.43l-4.63599,-0.871c-0.189,-0.936 -0.43799,-1.868 -0.75201,-2.791l3.62903,-3.108l-1.51102,-3.087l-4.673,0.969c-0.59198,-0.896 -1.237,-1.737 -1.93298,-2.523l2.099,-4.236l-2.58902,-2.256l-3.89398,2.671c-0.802,-0.534 -1.63501,-1.013 -2.495,-1.439l0.35098,-4.72l-3.24701,-1.113l-2.603,3.948c-1.034,-0.212 -2.08499,-0.351 -3.14297,-0.414l-1.505,-4.484l-3.422,0.239l-0.86902,4.649c-0.93298,0.188 -1.862,0.439 -2.78299,0.753l-3.10001,-3.636l-3.07999,1.512l0.96698,4.687c-0.89301,0.591 -1.73398,1.24 -2.51898,1.937l-4.22302,-2.105l-2.25198,2.596l2.66699,3.902c-0.53198,0.807 -1.01199,1.641 -1.43698,2.503l-4.70801,-0.355l-1.11,3.252l3.93901,2.612c-0.20999,1.036 -0.35101,2.09 -0.41501,3.15l-4.47099,1.508l0.23799,3.431l4.63602,0.87c0.18698,0.937 0.43698,1.869 0.75098,2.792l-3.62799,3.108l1.508,3.088l4.67502,-0.972c0.59,0.896 1.23599,1.738 1.93399,2.525l-2.09799,4.234l2.58698,2.257l3.89401,-2.671c0.80301,0.534 1.638,1.012 2.49701,1.439l-0.35101,4.719l3.24301,1.113l2.60699,-3.949c1.034,0.213 2.08398,0.352 3.142,0.417l1.504,4.483l3.422,-0.239l0.86902,-4.648c0.935,-0.19 1.86398,-0.44 2.784,-0.753l3.10098,3.636l3.08099,-1.514l-0.96799,-4.684c0.89401,-0.592 1.73401,-1.24 2.517,-1.938l4.22501,2.104l2.25,-2.595l-2.66501,-3.905c0.53101,-0.805 1.01199,-1.639 1.43402,-2.503l4.70999,0.354l1.112,-3.252l-3.94101,-2.609c0.21201,-1.037 0.35001,-2.088 0.41501,-3.152m-22.50702,6.923c-4.55499,0 -8.24899,-3.702 -8.24899,-8.269c0,-4.566 3.694,-8.268 8.24899,-8.268c4.55402,0 8.24802,3.702 8.24802,8.268c0,4.567 -3.694,8.269 -8.24802,8.269" id="XMLID_26_"/>
    </g>
    <path fill="#B3B3B3" d="m273.63501,49.094l4.504,-1.407l-0.16299,-3.435l-4.61499,-0.973c-0.16901,-0.94 -0.39603,-1.877 -0.69,-2.807l3.69699,-3.028l-1.44299,-3.119l-4.69299,0.866c-0.57202,-0.909 -1.19901,-1.764 -1.87701,-2.565l2.19101,-4.188l-2.539,-2.312l-3.952,2.585c-0.79001,-0.551 -1.61301,-1.049 -2.46201,-1.493l0.45499,-4.711l-3.22198,-1.185l-2.689,3.89c-1.02901,-0.234 -2.07602,-0.397 -3.13301,-0.484l-1.40601,-4.516l-3.42599,0.163l-0.97101,4.628c-0.937,0.168 -1.87099,0.398 -2.799,0.692l-3.02,-3.704l-3.11299,1.444l0.864,4.707c-0.90601,0.571 -1.761,1.201 -2.561,1.881l-4.17599,-2.197l-2.30901,2.546l2.58101,3.96c-0.55,0.795 -1.048,1.618 -1.492,2.471l-4.7,-0.457l-1.181,3.227l3.87999,2.699c-0.23199,1.031 -0.39699,2.082 -0.48399,3.141l-4.504,1.41l0.16299,3.435l4.616,0.972c0.166,0.94 0.39601,1.878 0.69,2.808l-3.696,3.027l1.44,3.121l4.69501,-0.868c0.56999,0.909 1.198,1.765 1.87799,2.567l-2.19099,4.187l2.536,2.313l3.952,-2.585c0.791,0.55099 1.61601,1.048 2.464,1.494l-0.455,4.711l3.21701,1.18401l2.69398,-3.89c1.02901,0.236 2.076,0.39799 3.132,0.486l1.405,4.515l3.42601,-0.164l0.97099,-4.628c0.93901,-0.16901 1.873,-0.399 2.8,-0.691l3.021,3.704l3.11301,-1.44601l-0.86499,-4.70499c0.90698,-0.57201 1.76099,-1.202 2.56,-1.882l4.17798,2.197l2.306,-2.545l-2.578,-3.962c0.54901,-0.792 1.048,-1.617 1.48901,-2.471l4.70099,0.458l1.18301,-3.227l-3.88101,-2.699c0.23499,-1.035 0.396,-2.083 0.48401,-3.145zm-10.035,-2.588l-4.69501,0c-0.15198,-1.584 -0.78098,-3.032 -1.741,-4.196l3.32202,-3.322c1.79697,2.025 2.94397,4.64 3.11398,7.518zm-4.17102,-8.575l-3.32199,3.322c-1.164,-0.961 -2.612,-1.589 -4.196,-1.741l0,-4.695c2.87801,0.17 5.493,1.317 7.51799,3.114zm-9.01299,-3.114l0,4.695c-1.58501,0.152 -3.032,0.78 -4.196,1.741l-3.32201,-3.322c2.026,-1.797 4.64,-2.944 7.51801,-3.114zm-8.575,4.171l3.32199,3.322c-0.961,1.164 -1.58899,2.611 -1.741,4.196l-4.69499,0c0.17,-2.878 1.317,-5.493 3.114,-7.518zm-3.114,9.013l4.69501,0c0.15199,1.585 0.78099,3.032 1.741,4.196l-3.32201,3.322c-1.797,-2.026 -2.944,-4.64 -3.114,-7.518zm11.689,11.689c-2.87801,-0.17 -5.492,-1.317 -7.51801,-3.114l3.32201,-3.322c1.164,0.961 2.61099,1.59 4.196,1.741l0,4.695zm-5.535,-12.437c0,-3.464 2.819,-6.283 6.283,-6.283c3.465,0 6.28299,2.819 6.28299,6.283c0,3.465 -2.81898,6.283 -6.28299,6.283c-3.465,0 -6.283,-2.818 -6.283,-6.283zm7.03,12.437l0,-4.695c1.58501,-0.152 3.032,-0.781 4.196,-1.741l3.32199,3.322c-2.02499,1.797 -4.63998,2.944 -7.51799,3.114zm8.575,-4.171l-3.32199,-3.322c0.961,-1.164 1.59,-2.611 1.741,-4.196l4.69498,0c-0.16998,2.878 -1.31699,5.492 -3.11398,7.518z" id="XMLID_14_"/>
    <path fill="#B3B3B3" d="m249.004,6.856l2.119,-0.662l-0.077,-1.616l-2.17201,-0.458c-0.07899,-0.442 -0.18599,-0.883 -0.325,-1.321l1.739,-1.425l-0.679,-1.468l-2.20799,0.407c-0.269,-0.427 -0.564,-0.83 -0.883,-1.207l1.03099,-1.971l-1.19499,-1.088l-1.86,1.216c-0.37201,-0.259 -0.759,-0.493 -1.159,-0.703l0.21399,-2.217l-1.51599,-0.557l-1.265,1.83c-0.48401,-0.11 -0.97701,-0.187 -1.474,-0.228l-0.662,-2.125l-1.612,0.077l-0.457,2.178c-0.44101,0.079 -0.88,0.187 -1.317,0.325l-1.42101,-1.743l-1.465,0.679l0.40601,2.215c-0.42601,0.269 -0.82901,0.565 -1.205,0.885l-1.961,-1.03l-1.086,1.198l1.214,1.863c-0.259,0.374 -0.493,0.761 -0.702,1.163l-2.21201,-0.215l-0.556,1.518l1.826,1.27c-0.10901,0.485 -0.18701,0.979 -0.22801,1.478l-2.11899,0.663l0.077,1.616l2.172,0.457c0.078,0.443 0.186,0.884 0.325,1.321l-1.739,1.424l0.67801,1.469l2.209,-0.409c0.26799,0.428 0.564,0.83 0.884,1.208l-1.03101,1.97l1.19299,1.088l1.85901,-1.216c0.37199,0.26 0.75999,0.493 1.16,0.703l-0.214,2.217l1.51399,0.557l1.267,-1.831c0.48401,0.111 0.97701,0.187 1.474,0.229l0.66101,2.125l1.612,-0.077l0.457,-2.177c0.442,-0.08 0.882,-0.188 1.317,-0.325l1.42099,1.743l1.46501,-0.681l-0.40701,-2.214c0.427,-0.269 0.82901,-0.565 1.20401,-0.886l1.966,1.034l1.08499,-1.198l-1.213,-1.864c0.258,-0.373 0.493,-0.761 0.701,-1.163l2.21199,0.215l0.55701,-1.518l-1.826,-1.27c0.10999,-0.485 0.18599,-0.978 0.22699,-1.478z" id="XMLID_13_"/>
   </g>
   <g clip-path="url(#XMLID_00000082367762562543076410000009004718785178270142_)" opacity="0.46" id="XMLID_29_">
    <g id="XMLID_42_">
     <path fill="#B3B3B3" d="m234.515,148.761c1.064,-0.065 2.116,-0.203 3.15201,-0.41501l2.612,3.93901l3.252,-1.112l-0.354,-4.71001c0.86299,-0.42099 1.698,-0.903 2.50299,-1.43399l3.90501,2.66499l2.59499,-2.25l-2.10399,-4.22501c0.698,-0.78299 1.347,-1.62399 1.938,-2.51799l4.68399,0.968l1.51401,-3.08101l-3.636,-3.101c0.313,-0.92 0.563,-1.849 0.75299,-2.784l4.64799,-0.869l0.23901,-3.422l-4.483,-1.505c-0.065,-1.058 -0.20399,-2.10799 -0.41701,-3.142l3.94902,-2.607l-1.11301,-3.243l-4.72,0.351c-0.427,-0.858 -0.90601,-1.693 -1.43901,-2.497l2.67101,-3.894l-2.257,-2.587l-4.23399,2.098c-0.78601,-0.698 -1.62801,-1.344 -2.52501,-1.934l0.972,-4.674l-3.088,-1.508l-3.108,3.62901c-0.924,-0.315 -1.856,-0.564 -2.79199,-0.752l-0.87001,-4.636l-3.431,-0.238l-1.508,4.471c-1.061,0.064 -2.114,0.20499 -3.14999,0.41499l-2.612,-3.939l-3.252,1.11l0.35399,4.709c-0.86299,0.425 -1.69699,0.905 -2.50299,1.437l-3.90201,-2.668l-2.59599,2.252l2.105,4.223c-0.69699,0.784 -1.347,1.625 -1.937,2.519l-4.687,-0.967l-1.51201,3.08l3.636,3.101c-0.314,0.921 -0.565,1.85 -0.75299,2.783l-4.649,0.869l-0.239,3.422l4.48399,1.506c0.064,1.05801 0.203,2.109 0.41499,3.143l-3.948,2.603l1.11301,3.24701l4.72,-0.35201c0.42599,0.85899 0.905,1.69299 1.439,2.495l-2.67101,3.89401l2.25601,2.58899l4.23599,-2.099c0.786,0.696 1.627,1.342 2.52299,1.93401l-0.96899,4.673l3.08701,1.51099l3.108,-3.629c0.924,0.31401 1.855,0.563 2.791,0.752l0.87099,4.636l3.43001,0.239l1.504,-4.47099m6.923,-22.507c0,4.554 -3.70201,8.248 -8.269,8.248c-4.56601,0 -8.26801,-3.694 -8.26801,-8.248c0,-4.556 3.702,-8.249 8.26801,-8.249c4.56699,0 8.269,3.694 8.269,8.249" id="XMLID_43_"/>
    </g>
    <path fill="#B3B3B3" d="m281.00299,117.384l2.69901,3.881l3.22699,-1.183l-0.45801,-4.701c0.854,-0.43999 1.67801,-0.93999 2.47101,-1.489l3.96201,2.578l2.54501,-2.306l-2.19702,-4.178c0.67999,-0.798 1.31,-1.653 1.88202,-2.559l4.70499,0.865l1.44601,-3.113l-3.70401,-3.021c0.293,-0.92599 0.522,-1.861 0.69101,-2.8l4.62799,-0.971l0.164,-3.426l-4.51501,-1.405c-0.08798,-1.056 -0.25,-2.103 -0.48599,-3.132l3.89099,-2.694l-1.18399,-3.217l-4.711,0.455c-0.44601,-0.849 -0.94299,-1.673 -1.49399,-2.464l2.58499,-3.952l-2.31302,-2.536l-4.18698,2.191c-0.802,-0.68 -1.65799,-1.308 -2.56702,-1.878l0.86801,-4.695l-3.121,-1.44l-3.02701,3.696c-0.92999,-0.294 -1.86798,-0.523 -2.80798,-0.69l-0.97202,-4.616l-3.435,-0.163l-1.41,4.50401c-1.05899,0.088 -2.10898,0.252 -3.14099,0.48399l-2.698,-3.881l-3.22699,1.181l0.457,4.7c-0.853,0.444 -1.67603,0.942 -2.47101,1.492l-3.95999,-2.581l-2.54602,2.309l2.19702,4.176c-0.68002,0.799 -1.31,1.654 -1.88101,2.561l-4.707,-0.864l-1.444,3.113l3.70399,3.02c-0.293,0.92699 -0.52399,1.862 -0.69199,2.799l-4.62801,0.971l-0.16299,3.426l4.51599,1.406c0.08701,1.056 0.24901,2.104 0.48401,3.133l-3.89,2.689l1.185,3.222l4.711,-0.455c0.44499,0.85001 0.942,1.673 1.493,2.46201l-2.58501,3.952l2.312,2.539l4.18802,-2.191c0.80099,0.679 1.65601,1.306 2.565,1.877l-0.866,4.693l3.11899,1.443l3.02798,-3.697c0.93002,0.294 1.867,0.521 2.80701,0.69l0.97299,4.615l3.43503,0.163l1.40698,-4.50401c1.06302,-0.088 2.11102,-0.25 3.14301,-0.48399zm-13.24799,-12.665l3.32199,-3.322c1.164,0.961 2.612,1.59 4.19601,1.741l0,4.695c-2.87802,-0.17 -5.492,-1.317 -7.51801,-3.114zm-4.17099,-8.575l4.69501,0c0.15201,1.585 0.78,3.03201 1.741,4.196l-3.32202,3.32201c-1.797,-2.026 -2.944,-4.64 -3.11398,-7.51801zm3.11398,-9.013l3.32199,3.32201c-0.961,1.16399 -1.58899,2.612 -1.741,4.196l-4.69498,0c0.16998,-2.878 1.31699,-5.493 3.11398,-7.51801zm8.57501,-4.171l0,4.695c-1.58499,0.152 -3.03201,0.781 -4.19601,1.741l-3.32199,-3.32201c2.026,-1.797 4.63998,-2.944 7.51801,-3.114zm9.013,3.114l-3.32199,3.32201c-1.164,-0.96101 -2.612,-1.59 -4.19601,-1.741l0,-4.695c2.87799,0.17 5.49298,1.317 7.51801,3.114zm-0.52301,8.575c-0.15201,-1.585 -0.78101,-3.03201 -1.741,-4.196l3.32199,-3.32201c1.797,2.025 2.944,4.64001 3.11401,7.51801l-4.69501,0zm-1.45901,0.747c0,3.465 -2.819,6.283 -6.28299,6.283c-3.46402,0 -6.28302,-2.819 -6.28302,-6.283c0,-3.464 2.819,-6.283 6.28302,-6.283c3.46399,0 6.28299,2.819 6.28299,6.283zm3.039,8.266l-3.32199,-3.32201c0.961,-1.16399 1.59,-2.611 1.741,-4.196l4.69501,0c-0.17001,2.87801 -1.31699,5.492 -3.11401,7.51801zm-8.57498,4.171l0,-4.695c1.58499,-0.152 3.03201,-0.781 4.19601,-1.741l3.32199,3.322c-2.02502,1.797 -4.64001,2.944 -7.51801,3.114z" id="XMLID_31_"/>
    <path fill="#B3B3B3" d="m235.62399,93.237l-0.662,2.119l-1.616,-0.077l-0.45801,-2.172c-0.442,-0.079 -0.883,-0.187 -1.321,-0.325l-1.425,1.73901l-1.46799,-0.679l0.407,-2.208c-0.427,-0.269 -0.83,-0.564 -1.207,-0.883l-1.97101,1.031l-1.088,-1.195l1.216,-1.86c-0.25999,-0.37099 -0.493,-0.759 -0.703,-1.159l-2.217,0.214l-0.55701,-1.516l1.83,-1.265c-0.11,-0.484 -0.187,-0.977 -0.22701,-1.474l-2.125,-0.662l0.07701,-1.612l2.17799,-0.457c0.07901,-0.44099 0.187,-0.881 0.326,-1.317l-1.743,-1.421l0.679,-1.465l2.215,0.407c0.269,-0.426 0.565,-0.829 0.88499,-1.205l-1.034,-1.965l1.198,-1.086l1.86301,1.214c0.37399,-0.259 0.761,-0.493 1.16299,-0.702l-0.215,-2.212l1.51799,-0.556l1.27,1.826c0.485,-0.109 0.979,-0.187 1.478,-0.228l0.66301,-2.119l1.616,0.077l0.457,2.172c0.44299,0.078 0.884,0.186 1.321,0.325l1.424,-1.739l1.46901,0.678l-0.40901,2.209c0.42801,0.268 0.83101,0.564 1.20801,0.884l1.97,-1.031l1.088,1.193l-1.216,1.86c0.26001,0.372 0.493,0.76 0.703,1.16l2.217,-0.214l0.55701,1.514l-1.83101,1.267c0.11101,0.484 0.18701,0.97701 0.229,1.474l2.125,0.661l-0.077,1.612l-2.177,0.457c-0.08,0.442 -0.188,0.882 -0.325,1.317l1.743,1.421l-0.67999,1.465l-2.214,-0.407c-0.269,0.427 -0.565,0.829 -0.886,1.204l1.034,1.966l-1.19699,1.08501l-1.864,-1.21301c-0.373,0.258 -0.761,0.493 -1.16301,0.701l0.215,2.212l-1.51799,0.557l-1.27,-1.826c-0.48499,0.112 -0.97899,0.188 -1.478,0.229z" id="XMLID_30_"/>
   </g>
  </g>
  <g id="Design">
   <defs>
    <rect height="125" width="270" id="XMLID_5_"/>
   </defs>
   <clipPath id="XMLID_00000175315101235096454350000018374321392597110701_">
    <use id="svg_2" xlink:href="#XMLID_5_"/>
   </clipPath>
   <g clip-path="url(#XMLID_00000175315101235096454350000018374321392597110701_)" opacity="0.65" id="XMLID_46_">
    <polygon fill="#878787" points="37.901,77.975 32.853,97.029 31.898,91.218 36.946,72.164   " id="XMLID_94_"/>
    <polygon fill="#8C8C8C" points="73.87,82.115 68.822,101.169 64.985,105.693 70.033,86.638   " id="XMLID_93_"/>
    <polygon fill="#9A9A9A" points="21.5,81.308 16.003,75.761 10.955,94.816 16.453,100.363   " id="XMLID_92_"/>
    <polygon fill="#A1A1A1" points="90.02,95.707 84.972,114.762 77.373,116.779 82.421,97.724   " id="XMLID_91_"/>
    <polygon fill="#A8A8A8" points="12.382,90.038 7.334,109.093 -1.232,105.299 3.816,86.244   " id="XMLID_90_"/>
    <polygon fill="#AAAAAA" points="95.071,110.837 90.024,129.891 80.688,128.859 85.736,109.804   " id="XMLID_89_"/>
    <g id="XMLID_86_">
     <defs>
      <path d="m6.788,110.716l5.048,-19.055c-0.124,0.46899 -0.222,0.945 -0.293,1.42799l-5.048,19.055c0.07,-0.48299 0.168,-0.959 0.293,-1.42799z" id="XMLID_87_"/>
     </defs>
     <clipPath id="XMLID_00000170965969571877360250000003792370927604582823_">
      <use id="svg_3" xlink:href="#XMLID_87_"/>
     </clipPath>
     <path fill="#878787" clip-path="url(#XMLID_00000170965969571877360250000003792370927604582823_)" d="m11.543,93.089l-5.048,19.055c0.071,-0.48299 0.169,-0.959 0.293,-1.42799l5.048,-19.055c-0.125,0.46899 -0.223,0.945 -0.293,1.42799" id="XMLID_88_"/>
    </g>
    <g id="XMLID_83_">
     <defs>
      <path d="m85.453,111.164l-5.048,19.05499c-0.152,0.57301 -0.343,1.136 -0.571,1.68901l5.048,-19.05401c0.228,-0.55399 0.419,-1.117 0.571,-1.68999z" id="XMLID_84_"/>
     </defs>
     <clipPath id="XMLID_00000167377112657587586520000015834406689201979796_">
      <use id="svg_4" xlink:href="#XMLID_84_"/>
     </clipPath>
     <path fill="#878787" clip-path="url(#XMLID_00000167377112657587586520000015834406689201979796_)" d="m85.453,111.164l-5.048,19.05499c-0.152,0.57301 -0.343,1.136 -0.571,1.68901l5.048,-19.05401c0.228,-0.55399 0.419,-1.117 0.571,-1.68999" id="XMLID_85_"/>
    </g>
    <polygon fill="#AAAAAA" points="12.981,101.817 7.933,120.871 -1.388,119.854 3.66,100.8   " id="XMLID_82_"/>
    <polygon fill="#878787" points="3.66,100.8 -1.388,119.854 -2.843,111.122 2.204,92.067   " id="XMLID_81_"/>
    <polygon fill="#A8A8A8" points="87.665,123.438 82.617,142.493 74.065,138.695 79.113,119.641   " id="XMLID_79_"/>
    <polygon fill="#8C8C8C" points="93.436,116.654 88.388,135.708 82.617,142.493 87.665,123.438   " id="XMLID_77_"/>
    <path fill="#8B8B8B" d="m9.348,123.47c0.139,0.221 0.283,0.442 0.432,0.663l5.048,-19.055c-0.163,-0.241 -0.317,-0.482 -0.467,-0.723c-0.225,-0.36 -0.436,-0.72 -0.635,-1.079c-0.043,-0.077 -0.083,-0.155 -0.125,-0.232c-0.221,-0.41 -0.431,-0.819 -0.621,-1.228l-5.048,19.055c0.19,0.409 0.4,0.818 0.621,1.228c0.025,0.046 0.044,0.092 0.07,0.138c0.017,0.031 0.038,0.063 0.055,0.094c0.199,0.359 0.41,0.719 0.635,1.079c0.012,0.02 0.023,0.03999 0.035,0.06z" id="XMLID_76_"/>
    <g id="XMLID_69_">
     <defs>
      <path d="m79.113,119.641l-5.048,19.055c-0.988,0.68201 -2.082,1.31 -3.28101,1.87601l5.048,-19.05501c1.199,-0.566 2.293,-1.194 3.281,-1.876z" id="XMLID_70_"/>
     </defs>
     <clipPath id="XMLID_00000153688033878443984610000012753670474056035740_">
      <use id="svg_5" xlink:href="#XMLID_70_"/>
     </clipPath>
     <path fill="#909090" clip-path="url(#XMLID_00000153688033878443984610000012753670474056035740_)" d="m79.113,119.641l-5.048,19.055c-0.065,0.045 -0.131,0.09 -0.19701,0.13499l5.048,-19.05499c0.066,-0.045 0.131,-0.09 0.197,-0.135" id="XMLID_75_"/>
     <path fill="#919191" clip-path="url(#XMLID_00000153688033878443984610000012753670474056035740_)" d="m78.915,119.775l-5.048,19.055c-0.31,0.209 -0.631,0.41299 -0.961,0.61099l5.048,-19.05399c0.331,-0.199 0.651,-0.403 0.961,-0.612" id="XMLID_74_"/>
     <path fill="#939393" clip-path="url(#XMLID_00000153688033878443984610000012753670474056035740_)" d="m77.954,120.386l-5.048,19.054c-0.319,0.19099 -0.647,0.377 -0.985,0.558l5.048,-19.054c0.338,-0.18 0.666,-0.367 0.985,-0.558" id="XMLID_73_"/>
     <path fill="#959595" clip-path="url(#XMLID_00000153688033878443984610000012753670474056035740_)" d="m76.969,120.945l-5.048,19.05399c-0.32899,0.17601 -0.667,0.347 -1.013,0.513l5.048,-19.05499c0.347,-0.165 0.685,-0.336 1.013,-0.512" id="XMLID_72_"/>
     <path fill="#969696" clip-path="url(#XMLID_00000153688033878443984610000012753670474056035740_)" d="m75.956,121.458l-5.048,19.055c-0.041,0.02 -0.083,0.03999 -0.124,0.05901l5.048,-19.05501c0.041,-0.02 0.083,-0.039 0.124,-0.059" id="XMLID_71_"/>
    </g>
    <polygon fill="#9A9A9A" points="11.38,111.305 6.332,130.359 2.256,126.251 7.304,107.197   " id="XMLID_68_"/>
    <path fill="#9C9C9C" d="m25.556,115.156c-0.243,-0.158 -0.485,-0.318 -0.724,-0.479c-0.141,-0.095 -0.282,-0.191 -0.421,-0.288c-0.227,-0.157 -0.451,-0.316 -0.674,-0.476c-0.193,-0.139 -0.389,-0.276 -0.579,-0.417l-5.048,19.054c0.104,0.077 0.209,0.15399 0.314,0.23c0.086,0.063 0.176,0.123 0.263,0.186c0.223,0.16 0.449,0.31999 0.676,0.47699c0.069,0.048 0.136,0.09801 0.206,0.145c0.071,0.049 0.144,0.09401 0.215,0.14301c0.24,0.162 0.482,0.32199 0.726,0.481c0.088,0.05699 0.174,0.11699 0.263,0.174c0.047,0.03 0.095,0.058 0.142,0.088c0.291,0.186 0.586,0.368 0.882,0.549c0.078,0.04701 0.153,0.097 0.231,0.14401c0.037,0.02199 0.074,0.045 0.111,0.06699l5.048,-19.05499c-0.116,-0.069 -0.229,-0.141 -0.343,-0.211c-0.296,-0.18 -0.59,-0.362 -0.88,-0.547c-0.137,-0.088 -0.272,-0.17699 -0.408,-0.265z" id="XMLID_67_"/>
    <g id="XMLID_61_">
     <defs>
      <path d="m64.311,124.585l-5.048,19.05401c-1.586,0.17599 -3.216,0.26599 -4.858,0.28499l5.048,-19.05499c1.641,-0.01801 3.271,-0.107 4.858,-0.284z" id="XMLID_62_"/>
     </defs>
     <clipPath id="XMLID_00000036250313963441498410000000782272608676600466_">
      <use id="svg_6" xlink:href="#XMLID_62_"/>
     </clipPath>
     <path fill="#A4A4A4" clip-path="url(#XMLID_00000036250313963441498410000000782272608676600466_)" d="m64.311,124.585l-5.048,19.05401c-0.378,0.04199 -0.759,0.07899 -1.142,0.112l5.048,-19.05501c0.382,-0.032 0.763,-0.069 1.142,-0.111" id="XMLID_66_"/>
     <path fill="#A5A5A5" clip-path="url(#XMLID_00000036250313963441498410000000782272608676600466_)" d="m63.168,124.697l-5.048,19.055c-0.513,0.043 -1.029,0.078 -1.549,0.105l5.048,-19.05499c0.52,-0.027 1.036,-0.062 1.549,-0.105" id="XMLID_65_"/>
     <path fill="#A7A7A7" clip-path="url(#XMLID_00000036250313963441498410000000782272608676600466_)" d="m61.62,124.802l-5.048,19.05499c-0.553,0.02901 -1.11,0.04901 -1.668,0.06001l5.048,-19.05501c0.558,-0.011 1.114,-0.031 1.668,-0.06" id="XMLID_64_"/>
     <path fill="#A8A8A8" clip-path="url(#XMLID_00000036250313963441498410000000782272608676600466_)" d="m59.951,124.862l-5.048,19.05501c-0.166,0.00299 -0.333,0.006 -0.5,0.008l5.048,-19.055c0.168,-0.00201 0.334,-0.00401 0.5,-0.008" id="XMLID_63_"/>
    </g>
    <path fill="#D0D0D0" d="m40.173,121.93l-5.048,19.05399c0.134,0.04201 0.269,0.084 0.404,0.125c0.395,0.121 0.797,0.22701 1.195,0.341c0.367,0.105 0.732,0.215 1.101,0.31401c0.055,0.015 0.109,0.032 0.164,0.047c0.751,0.19899 1.506,0.384 2.265,0.55499l5.048,-19.054c-0.814,-0.184 -1.624,-0.38699 -2.429,-0.602c-0.368,-0.099 -0.732,-0.209 -1.099,-0.313c-0.535,-0.153 -1.072,-0.301 -1.601,-0.467z" id="XMLID_60_"/>
    <polygon fill="#9A9A9A" points="15.567,115.52 10.519,134.574 6.332,130.359 11.38,111.305   " id="XMLID_59_"/>
    <polygon fill="#A0A0A0" points="23.158,113.495 18.11,132.55 10.519,134.574 15.567,115.52   " id="XMLID_58_"/>
    <polygon fill="#9B9B9B" points="69.951,130.113 64.903,149.167 59.263,143.64 64.311,124.585   " id="XMLID_57_"/>
    <polygon fill="#A0A0A0" points="70.527,147.66 76.296,146.115 81.343,127.06 75.575,128.605     69.951,130.113 64.903,149.167   " id="XMLID_56_"/>
    <polygon fill="#A8A8A8" points="29.836,123.585 24.788,142.639 18.438,139.832 23.486,120.778   " id="XMLID_55_"/>
    <polygon fill="#A8A8A8" points="36.349,126.463 31.301,145.518 24.788,142.639 29.836,123.585   " id="XMLID_54_"/>
    <polygon fill="#8C8C8C" points="40.173,121.93 35.125,140.985 31.301,145.518 36.349,126.463   " id="XMLID_53_"/>
    <polygon fill="#AAAAAA" points="48.286,148.971 55.376,149.741 60.424,130.686 53.334,129.916     46.424,129.165 41.376,148.219   " id="XMLID_52_"/>
    <path fill="#888888" d="m15.567,115.52l-4.187,-4.215l-4.076,-4.108l7.524,-2.118c-0.735,-1.09 -1.344,-2.176 -1.848,-3.262l-9.32,-1.017l-1.456,-8.732l9.338,1.022c0.154,-1.05099 0.436,-2.07 0.839,-3.05099l-8.566,-3.794l5.752,-6.79601l8.557,3.79c1.013,-0.705 2.14,-1.348 3.375,-1.931l-5.497,-5.546l11.41,-3.035l5.495,5.54401c1.629,-0.18201 3.298,-0.275 4.992,-0.29601l-0.954,-5.811l14.003,1.53699l0.962,5.819c1.776,0.4 3.535,0.875 5.271,1.424l3.844,-4.525l12.844,5.697l-3.83701,4.524c1.44901,0.861 2.833,1.784 4.14,2.756l7.605,-2.019l8.242,8.332l-7.599,2.017c0.762,1.121 1.39,2.24001 1.899,3.353l9.326,1.032l1.425,8.728l-9.335,-1.032c-0.16,1.05 -0.447,2.064 -0.854,3.049l8.554,3.8l-5.771,6.785l-8.552,-3.798c-0.988,0.682 -2.082,1.31001 -3.281,1.876l5.511,5.543l-5.769,1.54601l-5.624,1.507l-5.64,-5.52701c-1.586,0.176 -3.216,0.266 -4.859,0.285l0.972,5.81599l-7.09,-0.76999l-6.91,-0.752l-1.122,-5.85201c-1.731,-0.39 -3.445,-0.855 -5.129,-1.382l-3.824,4.533l-6.513,-2.87801l-6.35,-2.807l3.701,-4.599c-1.403,-0.841 -2.753,-1.738 -4.029,-2.684l-7.589,2.022zm24.433,-22.77499c-6.564,1.759 -8.018,7.074 -3.247,11.87199c4.766,4.79301 13.955,7.257 20.519,5.498c6.568,-1.75999 8.024,-7.076 3.258,-11.869c-4.77,-4.798 -13.962,-7.261 -20.53,-5.501" id="XMLID_49_"/>
    <polygon fill="#888888" points="46.424,129.165 41.376,148.219 40.254,142.367 45.302,123.312   " id="XMLID_48_"/>
   </g>
  </g>
 </g>
</svg>